<?xml version="1.0" standalone="no"?>
<!DOCTYPE svg PUBLIC "-//W3C//DTD SVG 1.1//EN" "http://www.w3.org/Graphics/SVG/1.1/DTD/svg11.dtd">
<svg xmlns="http://www.w3.org/2000/svg">
<metadata>Copyright (C) 2023 by original authors @ fontello.com</metadata>
<defs>
<font id="checkit" horiz-adv-x="1000" >
<font-face font-family="checkit" font-weight="400" font-stretch="normal" units-per-em="1000" ascent="850" descent="-150" />
<missing-glyph horiz-adv-x="1000" />
<glyph glyph-name="checkit" unicode="&#xe800;" d="M28 367l145 50c18 7 37-2 45-20 25-59 69-117 109-143 206 99 394 309 481 422 12 15 34 18 50 7l123-92c17-12 20-34 8-50-215-288-492-479-661-531-74 17-229 84-321 310-8 19 2 40 21 47z" horiz-adv-x="1000" />

<glyph glyph-name="apple" unicode="&#xe801;" d="M852 524c-4-3-101-57-101-177 4-137 123-185 125-185-2-3-18-65-65-131-37-57-79-114-142-114-60 0-81 37-150 37-74 0-95-37-152-37-63 0-107 60-146 116-52 74-95 189-97 300-1 59 11 117 39 166 41 68 113 115 191 116 61 2 114-41 151-41 35 0 101 41 176 41 32 0 118-9 171-91z m-352 103c-11 54 19 107 47 142 35 41 91 69 139 69 3-53-17-106-52-144-31-42-84-73-134-67z" horiz-adv-x="1000" />

<glyph glyph-name="checked-checkbox" unicode="&#xe802;" d="M800 717h-600c-37 0-67-30-67-67v-600c0-37 30-67 67-67h600c37 0 67 30 67 67v600c0 37-30 67-67 67z m-76-257l-252-252c-7-6-15-10-24-10s-17 4-24 10l-115 115c-13 13-13 34 0 47s34 13 48 0l91-91 228 228c14 13 35 13 48 0s13-34 0-47z" horiz-adv-x="1000" />

<glyph glyph-name="not-checked" unicode="&#xe803;" d="M800 717h-600c-37 0-67-30-67-67v-600c0-37 30-67 67-67h600c37 0 67 30 67 67v600c0 37-30 67-67 67z" horiz-adv-x="1000" />

<glyph glyph-name="not-checked-o" unicode="&#xe804;" d="M800 683c20 0 33-16 33-33v-600c0-20-16-33-33-33h-600c-20 0-33 16-33 33v600c0 20 16 33 33 33h600m0 34h-600c-37 0-67-30-67-67v-600c0-37 30-67 67-67h600c37 0 67 30 67 67v600c0 37-30 67-67 67l0 0z" horiz-adv-x="1000" />

<glyph glyph-name="trash-can" unicode="&#xe805;" d="M433 750a33 33 0 0 1-33-33l-200 0a33 33 0 1 1 0-67l600 0a33 33 0 1 1 0 67l-199 0a33 33 0 0 1-34 33l-134 0z m-233-167l0-533c0-37 30-67 67-67l466 0c37 0 67 30 67 67l0 533-600 0z" horiz-adv-x="1000" />

<glyph glyph-name="menu-vertical" unicode="&#xe806;" d="M500 717a100 100 0 0 1-100-100 100 100 0 0 1 100-100 100 100 0 0 1 100 100 100 100 0 0 1-100 100z m0-267a100 100 0 0 1-100-100 100 100 0 0 1 100-100 100 100 0 0 1 100 100 100 100 0 0 1-100 100z m0-267a100 100 0 0 1-100-100 100 100 0 0 1 100-100 100 100 0 0 1 100 100 100 100 0 0 1-100 100z" horiz-adv-x="1000" />

<glyph glyph-name="edit" unicode="&#xe807;" d="M761 750c-17 0-34-6-47-19l-81-81 167-167 81 81c26 26 26 68 0 94l-73 73c-13 13-30 19-47 19z m-194-167l-392-391c0 0 31 3 42-9 12-11 2-86 16-100 14-14 89-4 99-14 11-11 10-44 10-44l391 392-166 166z m-434-500l-31-89a33 33 0 0 1-2-11 33 33 0 0 1 33-33 33 33 0 0 1 11 2 33 33 0 0 1 1 0l0 0a33 33 0 0 1 1 0l87 31-50 50-50 50z" horiz-adv-x="1000" />

<glyph glyph-name="user-o" unicode="&#xe808;" d="M518 782c-94-2-154-40-179-98-25-56-19-127-1-200-10-11-18-26-15-48 3-25 10-42 20-55 5-6 12-7 18-10 4-21 10-42 18-60 5-10 11-19 17-27 2-3 6-5 8-8 1-24 1-45-1-71-7-16-22-28-47-41-25-12-58-24-92-38-33-15-67-32-95-60-27-27-46-65-49-115l-1-21 802 0-1 21c-3 50-22 88-49 115-27 28-61 45-95 60-33 14-66 26-91 38-24 13-40 25-46 40-2 27-2 47-2 72 3 3 6 5 9 8 5 8 10 17 15 27 9 18 15 39 18 60 7 3 13 4 19 10 9 13 16 30 19 55 3 22-5 36-14 47 10 32 22 83 18 136-2 29-9 57-27 81-15 22-41 38-73 44-21 28-59 38-103 38z m0-40c0 0 1 0 1 0 40 0 66-12 74-25l5-8 9-1c28-4 44-16 55-31 11-16 17-37 19-61 4-48-10-104-18-130l-5-16 13-8c-1 0 8-5 6-22-2-20-7-30-11-34-3-5-5-5-5-5l-17-1-2-16c-2-17-9-39-17-55-4-8-8-16-12-21-3-5-7-8-5-7l-11-5 0-12c0-29-1-53 2-86l0-3 1-2c11-31 38-50 67-65 29-14 62-25 94-39 31-13 60-29 81-51 17-17 27-40 33-68l-710 0c6 28 16 51 33 68 22 22 51 38 82 51 32 14 65 25 94 39 29 15 56 34 67 65l2 5c3 33 1 57 1 86l0 12-10 5c2-1-3 2-6 7-4 5-9 13-13 21-8 16-15 38-17 55l-2 16-17 1c0 0-2 0-5 5-4 4-8 14-11 34-2 17 7 22 6 22l13 8-4 14c-19 73-22 139-2 184 19 44 59 72 142 74z" horiz-adv-x="1000" />

<glyph glyph-name="user" unicode="&#xe809;" d="M518 782c-94-2-154-40-178-98-24-56-18-126-2-200-10-12-18-26-14-48 2-24 10-42 20-54 6-6 12-8 18-10 4-20 10-42 18-60 4-10 10-20 16-26 2-4 6-6 8-8 0-24 0-46-2-72-6-16-22-28-46-40-26-12-58-24-92-38s-68-32-96-60-46-66-48-116l-2-22h802l0 22c-2 50-22 88-50 116s-62 44-94 60-66 26-92 38c-24 12-40 24-46 40-2 26-2 46-2 72 2 2 6 4 8 8 6 8 10 16 16 26 8 18 14 38 18 60 6 4 12 4 18 10 10 12 16 30 20 54 2 22-4 36-14 48 10 32 22 82 18 136-2 28-10 58-26 82-16 22-42 38-74 44-20 26-58 36-102 36l0 0z" horiz-adv-x="1000" />

<glyph glyph-name="doorbell" unicode="&#xe810;" d="M500 750c-37 0-67-30-67-67l0-8c-115-30-200-134-200-258l0-80c0-53-11-105-31-154l596 0c-20 49-31 101-31 154l0 80c0 124-85 228-200 258l0 8c0 37-30 67-67 67z m-333-633a33 33 0 1 1 0-67l239 0a100 100 0 0 1-6-33 100 100 0 0 1 100-100 100 100 0 0 1 100 100 100 100 0 0 1-6 33l239 0a33 33 0 1 1 0 67l-333 0-333 0z" horiz-adv-x="1000" />

<glyph glyph-name="download" unicode="&#xe811;" d="M500 817c-18 0-33-15-33-34l0-133 66 0 0 133c0 19-15 34-33 34z m33-167l0-419 77 76c13 13 34 13 47 0 13-13 13-34 0-47l-133-134c-7-6-15-9-24-9-8 0-17 3-24 9l-133 134c-13 13-13 34 0 47 13 13 34 13 47 0l77-76 0 419-267 0c-37 0-67-30-67-67l0-566c0-37 30-67 67-67l600 0c37 0 67 30 67 67l0 566c0 37-30 67-67 67l-267 0z" horiz-adv-x="1000" />

<glyph glyph-name="gear" unicode="&#xe812;" d="M500 783c-18 0-33-15-33-33l0-6c0-16-12-30-27-32-8-2-15-3-23-5-15-3-31 5-37 20l-2 5c-7 17-27 25-44 18-17-7-25-26-18-43l2-6c6-14 2-32-12-40-6-4-13-8-19-13-13-9-31-7-42 4l-4 4c-13 13-34 13-47 0-13-13-13-34 0-47l4-4c11-11 13-29 4-42-5-6-9-12-13-19-8-13-26-18-40-12l-6 2c-17 7-36-1-43-18-7-17 1-37 18-44l5-2c15-6 23-22 20-37-2-7-3-15-5-23-2-15-16-27-32-27l-6 0c-18 0-33-15-33-33 0-18 15-33 33-33l6 0c16 0 30-12 32-27 2-8 3-15 5-23 3-15-5-31-20-37l-5-2c-17-7-25-27-18-44 7-17 26-25 43-18l6 2c14 6 32 2 40-12 4-6 8-13 13-19 9-13 7-31-4-42l-4-4c-13-13-13-34 0-47 13-13 34-13 47 0l4 4c11 11 29 13 42 4 6-5 13-9 19-13 14-8 19-26 12-41l-2-5c-7-17 1-36 18-44 17-7 37 2 44 19l2 5c6 14 22 23 37 20 8-2 15-4 23-5 15-2 27-16 27-32l0-6c0-18 15-33 33-33 18 0 33 15 33 33l0 6c0 16 12 30 27 32 8 2 16 3 23 5 15 3 31-6 37-20l2-5c7-17 27-25 44-18 17 7 25 26 18 43l-2 6c-6 14-1 32 12 40 7 4 13 8 19 13 13 9 31 7 42-4l4-4c13-13 34-13 47 0 13 13 14 34 0 47l-4 4c-11 11-13 29-4 42 5 6 9 13 13 19 9 14 26 19 41 12l5-2c17-7 36 1 44 18 7 17-2 37-19 44l-5 2c-14 6-23 22-20 37 2 8 4 15 5 23 2 15 16 27 32 27l6 0c18 0 33 15 33 33 0 18-15 33-33 33l-6 0c-16 0-30 12-32 27-2 8-3 16-5 23-3 15 6 31 20 37l5 2c17 7 25 27 18 44-7 17-26 25-43 18l-6-2c-14-6-32-1-40 12-4 7-8 13-13 19-9 13-7 31 4 42l4 4c13 13 13 34 0 47-13 14-34 14-47 0l-4-4c-11-11-29-13-42-4-6 5-12 9-19 13-14 8-18 26-12 41l2 5c7 17-1 36-18 43-17 7-37-1-44-18l-2-5c-6-14-22-23-37-20-8 2-15 3-23 5-15 2-27 16-27 32l0 6c0 18-15 33-33 33z m-33-169l0-131a33 33 0 0 1 0-4c-24-6-45-19-62-36a33 33 0 0 1-4 3l-113 65c42 56 106 94 179 103z m66 0c73-9 137-47 179-103l-113-65a33 33 0 0 1-4-3c-17 17-38 30-62 36a33 33 0 0 1 0 4l0 131z m-279-160l114-66a33 33 0 0 1 4-2c-3-12-5-24-5-36 0-12 2-24 5-36a33 33 0 0 1-4-2l-114-65c-13 31-21 66-21 103 0 37 8 72 21 104z m492 0c13-32 21-67 21-104 0-37-8-72-21-103l-114 65a33 33 0 0 1-4 2c3 12 5 24 5 36 0 12-2 24-5 36a33 33 0 0 1 4 2l114 66z m-246-54c28 0 50-22 50-50 0-28-22-50-50-50-28 0-50 22-50 50 0 28 22 50 50 50z m-95-143c17-17 38-30 62-36a33 33 0 0 1 0-4l0-131c-73 9-137 47-179 103l113 66a33 33 0 0 1 4 2z m190 0a33 33 0 0 1 4-2l113-66c-42-56-106-94-179-103l0 131a33 33 0 0 1 0 4c24 6 46 19 62 36z" horiz-adv-x="1000" />

<glyph glyph-name="locked" unicode="&#xe813;" d="M652 436h-66v207c0 114-93 207-207 207s-207-93-207-207v-207h-65c-59 0-107-47-107-106v-373c0-59 48-107 107-107h545c59 0 107 48 107 107v373c0 59-48 106-107 106z m-169 0h-207v207c0 57 46 104 103 104s104-47 104-104v-207z" horiz-adv-x="759" />

<glyph glyph-name="themes" unicode="&#xe814;" d="M300 750c-22 0-43-11-55-30l-49-73c9 2 18 3 28 3 12 0 25-1 37-5l337-98 49-14-310 206c-12 7-25 11-37 11z m-71-166c-31 2-60-17-69-48l-20-67c18 9 38 14 60 14l379 0-337 98c-4 1-9 2-13 3z m-29-167c-36 0-67-31-67-67l0-333c0-37 31-67 67-67l600 0c36 0 67 30 67 67l0 333c0 36-31 67-67 67l-600 0z m500-67l100 0 0-333-100 0 0 333z" horiz-adv-x="1000" />

<glyph glyph-name="tools" unicode="&#xe815;" d="M133 750l-66-67 66-133 100-33 117-117 67 67-117 116-33 100-134 67z m603 0c-56 2-112-18-154-60-54-55-59-120-32-182l-387-387c-39-39-39-103 0-142 39-39 102-39 141 0l387 388c62-28 128-23 182 32 56 56 73 137 50 208l-123-124-107 27-26 107 123 123c-18 6-36 9-54 10z m-52-488l-125-125 160-161c35-35 91-35 126 0 34 35 34 91 0 126l-161 160z m-451-179c19 0 34-15 34-33 0-18-15-33-34-33-18 0-33 15-33 33 0 18 15 33 33 33z" horiz-adv-x="1000" />

<glyph glyph-name="translation" unicode="&#xe816;" d="M208 725c-21 0-44-8-59-24-16-15-24-38-24-59l0-375c0-22 8-44 24-60 15-16 38-24 59-24l125 0 0-125c0-45 38-83 84-83l375 0c46 0 83 38 83 83l0 375c0 46-37 84-83 84l-125 0 0 125c0 21-8 44-24 59-16 16-38 24-60 24l-375 0z m608 0c-3-1-6-2-8-4l-69-69c-6-5-6-15 0-21l69-68c9-10 25-3 25 11l0 136c0 10-9 16-17 15z m-608-83l375 0 0-167-208-208-167 0 0 375z m188-42a21 21 0 0 1-21-21l0-21-62 0a21 21 0 1 1 0-41l80 0a21 21 0 0 1 6 0l57 0c-4-40-21-69-44-89-7-6-14-11-21-15-22 12-45 29-61 53a21 21 0 0 1-18 9 21 21 0 0 1-17-32c13-20 30-36 47-48-10-2-20-3-29-3a21 21 0 1 1 0-42c26 0 52 6 77 16 24-10 43-15 43-15a21 21 0 1 1 10 40c0 0-5 2-8 2 2 1 3 2 4 3 35 31 60 78 61 137a21 21 0 0 1-2 15 21 21 0 0 1 0 0 21 21 0 0 1-3 3 21 21 0 0 1 0 0 21 21 0 0 1-1 2 21 21 0 0 1 0 0 21 21 0 0 1-2 1 21 21 0 0 1-13 5 21 21 0 0 1-3-1l-59 0 0 21a21 21 0 0 1-21 21z m208-212l21 0c13-2 19-8 23-17l93-250c3-8 1-13-11-13l-34 0c-8 0-14 5-16 12l-13 47-100 0-17-48c-3-6-9-11-15-11l-35 0c-11 0-15 3-12 13l93 250c5 11 13 17 23 17z m13-71l-38-104 71 0-33 104z m-432-176c-9 2-18-4-18-15l0-136c0-13 16-20 26-11l68 69c6 6 6 15 0 21l-68 68c-3 3-6 4-8 4z" horiz-adv-x="1000" />

<glyph glyph-name="th-thumb" unicode="&#xe817;" d="M0-66v286q0 22 15 37t37 16h285q22 0 37-16t15-37v-286q0-21-15-36t-37-15h-285q-22 0-37 15t-15 36z m0 546v286q0 21 15 36t37 15h285q22 0 37-15t15-36v-286q0-22-15-37t-37-16h-285q-22 0-37 16t-15 37z m547-546v286q0 22 15 37t37 16h286q21 0 37-16t15-37v-286q0-21-15-36t-37-15h-286q-21 0-37 15t-15 36z m0 546v286q0 21 15 36t37 15h286q22 0 37-15t15-36v-286q0-22-15-37t-37-16h-286q-21 0-37 16t-15 37z" horiz-adv-x="937.5" />

<glyph glyph-name="th-thumb-empty" unicode="&#xe818;" d="M0-66v286q0 22 15 37t37 16h286q21 0 37-16t15-37v-286q0-21-15-36t-37-15h-286q-22 0-37 15t-15 36z m0 546v286q0 21 15 36t37 15h286q21 0 37-15t15-36v-286q0-22-15-37t-37-16h-286q-21 0-37 16t-15 37z m88-510h214v214h-214v-214z m0 546h214v213h-214v-213z m459-582v286q0 22 15 37t37 16h286q21 0 37-16t15-37v-286q0-21-15-36t-37-15h-286q-21 0-37 15t-15 36z m0 546v286q0 21 15 36t37 15h286q22 0 37-15t15-36v-286q0-22-15-37t-37-16h-286q-21 0-37 16t-15 37z m88-510h215v214h-215v-214z m0 546h215v213h-215v-213z" horiz-adv-x="937.5" />

<glyph glyph-name="th-list" unicode="&#xe819;" d="M0 62q0-30 21-51t51-21h32q30 0 51 21t21 51-21 51-51 21h-32q-30 0-51-21t-21-51z m0 288q0-30 21-51t51-21h32q30 0 51 21t21 51-21 51-51 21h-32q-30 0-51-21t-21-51z m0 288q0-30 21-51t51-21h32q30 0 51 21t21 51-21 51-51 21h-32q-30 0-51-21t-21-51z m234-576q0-30 21-51t51-21h559q30 0 51 21t21 51-21 51-51 21h-559q-30 0-51-21t-21-51z m0 288q0-30 21-51t51-21h559q30 0 51 21t21 51-21 51-51 21h-559q-30 0-51-21t-21-51z m0 288q0-30 21-51t51-21h559q30 0 51 21t21 51-21 51-51 21h-559q-30 0-51-21t-21-51z" horiz-adv-x="937.5" />

<glyph glyph-name="airport" unicode="&#xe820;" d="M500 783c-37 0-67-29-67-66l0-258-333-242 0-67 333 91 0-211-133-80 0-33 167 0 100 0 133 0 0 33-133 80 0 211 333-91 0 67-333 242 0 258c0 37-30 66-67 66z" horiz-adv-x="1000" />

<glyph glyph-name="approval" unicode="&#xe821;" d="M910 391l-30 18c-13 8-22 21-26 35 0 1 0 1 0 1-4 15-3 30 5 44l17 31c17 31-5 70-41 71l-36 0c-15 0-29 7-40 18 0 0 0 0 0 0-11 11-17 25-18 40l0 36c-1 36-40 58-71 41l-31-17c-14-8-29-9-44-5 0 0 0 0-1 0-14 4-27 13-35 26l-18 30c-18 31-63 31-82 0l-18-30c-8-13-21-22-35-26 0 0-1 0-1 0-15-4-30-3-44 5l-30 17c-32 17-71-5-72-41l0-36c0-15-7-29-18-40 0 0 0 0 0 0-11-11-25-17-40-18l-36 0c-36-1-58-40-41-71l18-31c7-14 8-29 4-44 0 0 0 0 0-1-4-14-13-27-26-35l-30-18c-31-18-31-63 0-82l30-18c13-8 22-21 26-35 0 0 0-1 0-1 4-15 3-30-4-43l-18-31c-17-32 5-71 41-72l36 0c15 0 29-7 40-18 0 0 0 0 0 0 11-11 18-25 18-40l0-36c1-36 40-58 72-41l30 17c14 8 29 9 44 5 0 0 1 0 1 0 14-4 27-13 35-26l18-30c19-31 63-31 82 0l18 30c8 13 21 22 35 26 0 0 1 0 1 0 15 4 30 3 44-5l30-17c32-17 71 5 72 41l0 36c0 15 7 29 18 40 0 0 0 0 0 0 11 11 25 18 40 18l36 0c36 1 58 40 41 72l-18 30c-7 14-8 29-4 44 0 0 0 1 0 1 4 14 13 27 26 35l30 18c31 19 31 64 0 82z m-220 35l-218-218c-7-6-15-10-24-10s-17 4-24 10l-115 115c-13 13-13 34 0 47s34 13 48 0l91-91 195 195c13 13 34 13 47 0s13-34 0-48z" horiz-adv-x="1000" />

<glyph glyph-name="at-sign" unicode="&#xe822;" d="M900 392c0-151-74-245-193-245-62 0-106 27-119 72h-10c-19-48-57-73-112-73-100 0-166 81-166 203 0 117 64 195 159 195 52 0 93-24 112-68h9v57h110v-244c0-34 16-54 42-54 42 0 69 56 69 145 0 174-114 285-291 285-185 0-311-129-311-318 0-191 127-311 331-311 44 0 89 6 114 14v-86c-34-9-79-14-125-14-251 0-419 160-419 400 0 236 168 400 411 400 232 0 389-145 389-358z m-474-46c0-63 26-100 70-100 44 0 71 38 71 100s-27 100-71 100-70-38-70-100z" horiz-adv-x="1000" />

<glyph glyph-name="basket" unicode="&#xe823;" d="M433 750c-8 0-17-3-23-10l-24-23-128 0c-50 0-92-37-99-86l-12-81 68 0 10 71c2 17 16 29 33 29l142 0c9 0 17 4 24 10l23 23 106 0 23-23c7-6 15-10 24-10l142 0c17 0 31-12 33-29l10-71 68 0-12 81c-7 49-49 86-99 86l-128 0-24 23c-6 7-14 10-23 10l-134 0z m-333-267c-18 0-33-15-33-33l0-67c0-18 15-33 33-33l6 0 51-311c6-32 34-56 66-56l554 0c32 0 60 24 66 56l52 311 5 0c18 0 33 15 33 33l0 67c0 18-15 33-33 33l-800 0z m233-166c19 0 34-15 34-34l0-166c0-19-15-34-34-34-18 0-33 15-33 34l0 166c0 19 15 34 33 34z m167 0c18 0 33-15 33-34l0-166c0-19-15-34-33-34-18 0-33 15-33 34l0 166c0 19 15 34 33 34z m167 0c18 0 33-15 33-34l0-166c0-19-15-34-33-34-19 0-34 15-34 34l0 166c0 19 15 34 34 34z" horiz-adv-x="1000" />

<glyph glyph-name="beach-ball" unicode="&#xe824;" d="M500 750c-220 0-400-179-400-400 0-220 180-400 400-400 221 0 400 180 400 400 0 221-179 400-400 400z m121-90c125-48 212-168 212-310 0-11 0-21-1-32-48 63-118 96-166 111 0-4 1-8 1-12 0-40-24-74-57-90 38-63 75-172 91-243-56-42-125-67-201-67-44 0-86 8-124 24 55 75 132 203 159 282-40 13-68 50-68 94 0 5 1 10 1 15-114-21-217-78-291-162-7 26-10 52-10 80 0 136 80 252 196 304 45-34 107-104 142-159 17 13 38 22 62 22 13 0 25-3 37-8 9 42 19 102 17 151z" horiz-adv-x="1000" />

<glyph glyph-name="beach" unicode="&#xe825;" d="M367 750c-111 0-200-89-200-200 0-17 2-34 6-50 23 86 101 150 194 150 45 0 87-15 120-41-29 9-62 10-95 3-77-15-139-77-154-153-10-46-3-90 14-127 12-24 49-17 48 10-1 19 1 38 6 58 17 70 74 127 144 144 17 4 33 6 49 6-24-308-366-433-366-433l0-67c0-37 30-67 67-67l600 0c37 0 67 30 67 67l0 67c0 0-34-34-67-34-33 0-67 34-67 34 0 0-33-34-66-34-34 0-67 34-67 34 0 0-33-34-67-34-33 0-66 34-66 34l-64 0c0 0 162 112 164 430 5-1 11-2 17-3 70-18 126-74 143-144 5-19 7-39 6-58-1-26 37-34 48-10 18 37 24 81 15 127-15 73-73 133-146 151 16 4 33 7 50 7 93 0 171-64 193-150 5 16 7 32 7 50 0 110-89 200-200 200-63 0-119-30-156-75-33 64-100 108-177 108z" horiz-adv-x="1000" />

<glyph glyph-name="books" unicode="&#xe826;" d="M583 767c-23 0-41-19-41-42l0-708c0-23 18-42 41-42l250 0c23 0 42 19 42 42l0 83c0 23-19 42-42 42l-125 0c-23 0-41 18-41 41 0 23 18 42 41 42l125 0c23 0 42 19 42 42l0 208c0 23-19 42-42 42l-125 0c-23 0-41 18-41 41 0 23 18 42 41 42l125 0c23 0 42 19 42 42l0 83c0 23-19 42-42 42l-250 0z m-416-125c-23 0-42-19-42-42l0-583c0-23 19-42 42-42l250 0c23 0 41 19 41 42l0 83c0 23-18 42-41 42l-84 0c-23 0-41 18-41 41 0 23 18 42 41 42l84 0c23 0 41 19 41 42l0 83c0 23-18 42-41 42l-84 0c-23 0-41 18-41 41 0 23 18 42 41 42l84 0c23 0 41 19 41 42l0 83c0 23-18 42-41 42l-250 0z" horiz-adv-x="1000" />

<glyph glyph-name="calculator" unicode="&#xe827;" d="M750 767h-500c-46 0-83-38-83-84v-666c0-46 37-84 83-84h500c46 0 83 38 83 84v666c0 46-37 84-83 84z m-42-250h-416c-23 0-42 18-42 41v84c0 23 19 41 42 41h416c23 0 42-18 42-41v-84c0-23-19-41-42-41z m-41-500h-167c-23 0-42 18-42 41v0c0 23 19 42 42 42h167c23 0 41-19 41-42v0c0-23-18-41-41-41z m-292 41c0-23-19-41-42-41s-41 18-41 41 18 42 41 42 42-19 42-42z m0 167c0-23-19-42-42-42s-41 19-41 42 18 42 41 42 42-19 42-42z m0 167c0-23-19-42-42-42s-41 19-41 42 18 41 41 41 42-18 42-41z m167-167c0-23-19-42-42-42s-42 19-42 42 19 42 42 42 42-19 42-42z m0 167c0-23-19-42-42-42s-42 19-42 42 19 41 42 41 42-18 42-41z m166-167c0-23-18-42-41-42-23 0-42 19-42 42s19 42 42 42c23 0 41-19 41-42z m0 167c0-23-18-42-41-42-23 0-42 19-42 42s19 41 42 41c23 0 41-18 41-41z" horiz-adv-x="1000" />

<glyph glyph-name="carpool" unicode="&#xe828;" d="M321 717c-57 0-107-36-126-90l-68-196c-37-24-60-65-60-111l0-237c0-36 30-66 66-66 37 0 67 30 67 66l0 42c0 0 176-8 300-8 124 0 300 8 300 8l0-42c0-36 30-66 67-66 37 0 66 30 66 66l0 237c0 46-23 87-59 111l-69 196c-19 54-69 90-126 90l-358 0z m0-67l358 0c28 0 54-18 63-45l38-109c6-17-8-34-26-31-65 10-149 18-254 18-104 0-188-8-254-18-18-3-32 14-26 31l38 109c9 27 35 45 63 45z m29-33a50 50 0 0 1-50-50 50 50 0 0 1 50-50 50 50 0 0 1 50 50 50 50 0 0 1-50 50z m150 0a33 33 0 0 1-33-34 33 33 0 0 1 33-33 33 33 0 0 1 33 33 33 33 0 0 1-33 34z m150 0a50 50 0 0 1-50-50 50 50 0 0 1 50-50 50 50 0 0 1 50 50 50 50 0 0 1-50 50z m-433-267c27 0 50-22 50-50 0-28-23-50-50-50-28 0-50 22-50 50 0 28 22 50 50 50z m183 0l200 0c18 0 33-15 33-33 0-19-15-34-33-34l-200 0c-18 0-33 15-33 34 0 18 15 33 33 33z m383 0c28 0 50-22 50-50 0-28-22-50-50-50-27 0-50 22-50 50 0 28 23 50 50 50z" horiz-adv-x="1000" />

<glyph glyph-name="carry-on-bag" unicode="&#xe829;" d="M433 817c-54 0-100-45-100-100l0-100-35 0c-55 0-100-45-100-100l0-467c0-55 45-100 100-100l5 0c-2-6-3-11-3-17 0-11 4-23 13-33 9-10 23-17 37-17 14 0 29 7 37 17 9 10 13 22 13 33 0 6-1 11-3 17l206 0c-2-6-3-11-3-17 0-11 4-23 13-33 9-10 23-17 37-17 14 0 29 7 37 17 9 10 13 22 13 33 0 6-1 11-3 17l3 0c55 0 100 45 100 100l0 467c0 55-45 100-100 100l-33 0 0 100c0 55-45 100-100 100l-134 0z m0-67l134 0c19 0 33-14 33-33l0-100-200 0 0 100c0 19 15 33 33 33z m34-533l66 0c19 0 34-15 34-34 0-18-15-33-34-33l-66 0c-19 0-34 15-34 33 0 19 15 34 34 34z m-117-267c3 0 9-2 12-6 4-4 5-7 5-11 0-3-1-7-5-10-3-4-9-6-12-6-3 0-9 2-12 6-4 3-5 7-5 10 0 4 1 7 5 11 3 4 9 6 12 6z m300 0c3 0 9-2 12-6 4-4 5-7 5-11 0-3-1-7-5-10-3-4-9-6-12-6-3 0-9 2-12 6-4 3-5 7-5 10 0 4 1 7 5 11 3 4 9 6 12 6z" horiz-adv-x="1000" />

<glyph glyph-name="cash" unicode="&#xe830;" d="M125 725c-23 0-42-19-42-42l0-416c0-23 19-42 42-42l750 0c23 0 42 19 42 42l0 416c0 23-19 42-42 42l-750 0z m80-83l590 0a63 63 0 0 1 38-38l0-258a63 63 0 0 1-38-38l-590 0a63 63 0 0 1-38 38l0 258a63 63 0 0 1 38 38z m295-42a125 125 0 0 1-125-125 125 125 0 0 1 125-125 125 125 0 0 1 125 125 125 125 0 0 1-125 125z m-208-83c-23 0-42-19-42-42 0-23 19-42 42-42 23 0 41 19 41 42 0 23-18 42-41 42z m416 0c-23 0-41-19-41-42 0-23 18-42 41-42 23 0 42 19 42 42 0 23-19 42-42 42z m-542-375l635-166c23-6 45 8 51 30l35 136-86 0-10-38c-18-1-35-11-46-27l-248 65-331 0z" horiz-adv-x="1000" />

<glyph glyph-name="classroom" unicode="&#xe831;" d="M250 767a83 83 0 0 1-83-84 83 83 0 0 1 83-83 83 83 0 0 1 83 83 83 83 0 0 1-83 84z m208-42c-23 0-41-19-41-42 0-23 18-41 41-41l334 0 0-334-292 0c-23 0-42-18-42-41 0-23 19-42 42-42l313 0c34 0 62 28 62 63l0 375c0 34-28 62-62 62l-355 0z m-250-167c-46 0-83-37-83-83l0-208c0-23 19-42 42-42l166 0c23 0 42 19 42 42l0 208 208 0c23 0 42 19 42 42 0 23-19 41-42 41l-208 0-42 0-125 0z m42-416a83 83 0 0 1-83-84 83 83 0 0 1 83-83 83 83 0 0 1 83 83 83 83 0 0 1-83 84z m250 0a83 83 0 0 1-83-84 83 83 0 0 1 83-83 83 83 0 0 1 83 83 83 83 0 0 1-83 84z m250 0a83 83 0 0 1-83-84 83 83 0 0 1 83-83 83 83 0 0 1 83 83 83 83 0 0 1-83 84z" horiz-adv-x="1000" />

<glyph glyph-name="coconut-cocktail" unicode="&#xe832;" d="M802 817a33 33 0 0 1-12-2l-100-33a33 33 0 0 1-19-15l-73-122c-31 3-64 5-98 5-184 0-333-45-333-100 0 0-34-140-34-200 0-202 165-367 367-367 203 0 367 165 367 367 0 60-34 200-34 200 0 28-37 52-96 70l-36-59c14-4 26-7 36-11-29-11-76-21-135-27l120 199 89 30a33 33 0 0 1-9 65z m-302-234c21 0 41 0 60-2l-38-63c-8-1-14-1-22-1-15 0-29 0-42 1-19 0-35-13-39-31l-20-123c-1-8-8-14-17-14-8 0-15 6-17 14l-23 142c-3 15-14 26-29 30-20 4-37 9-50 14 44 16 126 33 237 33z" horiz-adv-x="1000" />

<glyph glyph-name="communication" unicode="&#xe833;" d="M375 725c-161 0-292-112-292-250 0-47 16-91 42-128l0-152c0-22 25-34 43-21l94 70c35-12 73-19 113-19 161 0 292 112 292 250 0 138-131 250-292 250z m374-232c0-6 1-12 1-18 0-184-168-333-375-333-1 0-2 0-2 0 50-75 144-125 252-125 40 0 78 7 113 19l94-71c18-13 43 0 43 22l0 151c26 38 42 82 42 129 0 100-69 186-168 226z" horiz-adv-x="1000" />

<glyph glyph-name="critical-thinking" unicode="&#xe834;" d="M521 767c-72 0-139-34-182-91-15 5-31 7-47 7-86 0-156-64-166-147-51-29-84-84-84-144 0-85 64-156 146-166 30-51 85-84 145-84 20 0 40 3 59 10 21-43 61-76 108-88l0-89c0-23 19-42 42-42l166 0c23 0 42 19 42 42 0 81 31 125 42 125 68 0 125 56 125 125 0 12-2 24-6 36 31 37 47 83 47 131 0 45-15 89-43 126-11 117-108 207-227 207-11 0-22-1-33-2-39 28-86 44-134 44z m79-209l50 0c5 0 10-4 10-9l4-39c16-5 31-14 44-25l35 16c2 1 3 1 5 1 3 0 7-2 9-5l25-44c3-4 1-10-3-13l-32-22c2-9 3-18 3-26 0-9-1-18-3-26l32-22c4-3 6-9 3-14l-25-43c-2-4-6-6-9-6-2 0-3 1-5 2l-35 16c-13-11-28-20-44-26l-4-38c0-6-5-10-10-10l-50 0c-5 0-10 4-10 10l-4 38c-16 6-31 15-44 26l-35-16c-2-1-3-2-5-2-3 0-7 2-9 6l-25 43c-3 5-1 11 3 14l32 22c-2 8-3 17-3 26 0 8 1 17 3 26l-32 22c-4 3-6 8-3 13l25 44c2 3 6 5 9 5 2 0 3 0 5-1l35-16c13 11 28 20 44 25l4 39c0 5 5 9 10 9z m25-104a63 63 0 0 1-62-62 63 63 0 0 1 62-63 63 63 0 0 1 63 63 63 63 0 0 1-63 62z" horiz-adv-x="1000" />

<glyph glyph-name="dive-boat" unicode="&#xe835;" d="M434 651a33 33 0 0 1-6-1l-95 0a33 33 0 1 1 0-67l54 0-78-233-109 0 0 233a33 33 0 0 1-34 34 33 33 0 0 1-5 0l-128 0 0-100 100 0 0-167-66 0c-19 0-34-15-34-33l0-34 51-135c21 3 42 1 61-8 12-7 54-23 88-23 35 0 76 16 89 23 28 13 62 13 89 0 13-7 55-23 89-23 34 0 76 16 89 23 28 13 61 13 89 0 13-7 54-23 89-23 34 0 76 16 89 23 5 2 10 4 15 5l96 172 0 66c0 19-15 34-34 34l-82 0-137 191c-19 26-49 42-82 42l-193 0a33 33 0 0 1-5 1z m23-68l175 0c11 0 21-5 27-14a33 33 0 0 1 1 0l128-180c-40-18-109-39-221-39l-187 0 77 233z m-358-499a33 33 0 0 1-14-64c0 0 71-37 148-37 65 0 116 23 134 31 18-8 68-31 133-31 65 0 115 23 133 31 18-8 69-31 134-31 77 0 148 37 148 37a33 33 0 1 1-30 60c0 0-63-30-118-30-56 0-119 30-119 30a33 33 0 0 1-30 0c0 0-62-30-118-30-56 0-118 30-118 30a33 33 0 0 1-30 0c0 0-63-30-119-30-55 0-118 30-118 30a33 33 0 0 1-16 4z" horiz-adv-x="1000" />

<glyph glyph-name="door-hanger" unicode="&#xe836;" d="M490 783c-140-5-253-119-256-259a67 67 0 0 1-1-7 67 67 0 0 1 67-67 67 67 0 0 1 67 67c0 84 77 149 164 129 49-11 88-50 99-98 20-87-46-165-130-165l-200 0c-37 0-67-29-67-66l0-334c0-37 30-66 67-66l400 0c37 0 67 29 67 66l0 524c0 142-107 266-249 276-9 0-19 1-28 0z" horiz-adv-x="1000" />

<glyph glyph-name="eiffel-tower" unicode="&#xe837;" d="M500 817a33 33 0 0 1-33-34l0-33-6 0c-15 0-28-12-28-27l0-46c0-14 11-25 24-26-15-102-35-191-58-268a33 33 0 0 1-19-60c-14-38-27-74-41-106l-6 0a33 33 0 0 1-22-59c-74-147-144-208-144-208l166 0c26 73 85 133 167 133 82 0 141-60 167-133l166 0c0 0-70 61-144 208a33 33 0 0 1-22 59l-6 0c-14 32-27 68-41 106a33 33 0 0 1-19 60c-23 77-43 166-58 268 13 1 24 12 24 26l0 46c0 15-12 27-27 27l-7 0 0 33a33 33 0 0 1-33 34z m0-334l22-100-44 0 22 100z m-37-166l74 0 22-100-118 0 22 100z" horiz-adv-x="1000" />

<glyph glyph-name="exam" unicode="&#xe838;" d="M406 339l-37-104h73l-36 104z m0 0l-37-104h73l-36 104z m143 428h-299c-46 0-83-38-83-84v-666c0-46 37-84 83-84h500c46 0 83 38 83 84v465c0 22-8 44-24 59l-201 201c-16 16-37 25-59 25z m-74-625l-21 58h-97l-20-58h-45l94 250h39l95-250h-45z m233 104h-62v-63h-42v63h-62v42h62v62h42v-62h62v-42z m-166 229v229l229-229h-229z m-173-240h73l-36 104-37-104z" horiz-adv-x="1000" />

<glyph glyph-name="experiment" unicode="&#xe839;" d="M667 767h-334c-23 0-41-19-41-42 0-23 18-42 41-42v-534c0-87 64-165 151-173 99-10 183 68 183 166v541c23 0 41 19 41 42 0 23-18 42-41 42z m-209-625c-23 0-41 18-41 41s18 42 41 42 42-19 42-42-19-41-42-41z m84 166c-23 0-42 19-42 42s19 42 42 42 41-19 41-42-18-42-41-42z m41 209h-166v166h166v-166z" horiz-adv-x="1000" />

<glyph glyph-name="flash-light" unicode="&#xe840;" d="M333 783c-18 0-33-15-33-33l0-33 400 0 0 33c0 18-15 33-33 33l-334 0z m-33-100l0-69c0-20 6-39 17-56l27-41c15-22 23-48 23-74l0-460c0-37 30-66 66-66l134 0c37 0 66 29 66 66l0 460c0 26 8 52 23 74l27 41c11 17 17 36 17 56l0 69-400 0z m200-233c37 0 67-30 67-67l0-66c0-37-30-67-67-67-37 0-67 30-67 67l0 66c0 37 30 67 67 67z m0-100a33 33 0 0 1-33-33 33 33 0 0 1 33-34 33 33 0 0 1 33 34 33 33 0 0 1-33 33z" horiz-adv-x="1000" />

<glyph glyph-name="forest" unicode="&#xe841;" d="M333 750c-36 0-66-30-66-67-56 0-100-44-100-100 0-3 0-5 1-8-21-12-35-33-35-58 0-8 2-16 5-23-23-18-38-46-38-77 0-30 14-57 35-75-21-12-35-33-35-59 0-36 30-66 67-66 0-56 44-100 100-100l33 0 0-134c0-18 15-33 33-33 19 0 34 15 34 33l0 134c0 20 6 40 20 59l48 65c-21 18-35 45-35 76 0 23 9 46 24 64l60 80c-11 16-17 35-17 56 0 18 5 35 15 52 1 1 2 3 3 5l38 50c-8 6-17 12-26 16-11 44-50 77-97 77-3 0-6-1-9-1-11 20-33 34-58 34z m334-67c-12 0-22-6-28-15l0 0-100-134c-3-5-6-11-6-17 0-19 15-34 34-34l16 0-107-144c-6-6-9-13-9-22 0-19 15-34 33-34l50 0-110-147c-4-6-7-12-7-19 0-19 15-34 34-34l166 0 0-100c0-18 15-33 34-33 18 0 33 15 33 33l0 100 167 0c18 0 33 15 33 34 0 7-3 13-7 19l-110 147 50 0c19 0 34 15 34 34 0 9-4 16-9 22l-108 144 17 0c18 0 33 15 33 34 0 6-2 12-5 17l-100 134-1 0c-6 9-16 15-27 15z" horiz-adv-x="1000" />

<glyph glyph-name="gift" unicode="&#xe842;" d="M375 767c-68 0-125-57-125-125 0-15 3-29 8-42l-86 0c-44 0-85-32-88-77-3-33 14-63 41-78l0-387c0-45 38-83 83-83l250 0 0 417c0 23 19 41 42 41 23 0 42-18 42-41l0-417 250 0c46 0 83 38 83 83l0 387c27 15 44 45 41 78-3 45-43 77-88 77l-86 0c5 13 8 27 8 42 0 68-56 125-125 125-32 0-61-13-83-33l0 1-5-5-37-37-37 37-5 5 0-1c-22 20-51 33-83 33z m0-84c24 0 42-18 42-41 0-24-18-42-42-42-23 0-42 18-42 42 0 23 19 41 42 41z m250 0c24 0 42-18 42-41 0-24-18-42-42-42-23 0-42 18-42 42 0 23 19 41 42 41z" horiz-adv-x="1000" />

<glyph glyph-name="guitar" unicode="&#xe843;" d="M854 781c-4 0-8-2-11-5l-25-25-11 11-14-14 11-11-14-14-11 10-14-14 10-10-24-25c-7-7-7-15 0-22l-169-168c-29 23-59 40-89 49-55 16-105 5-143-34-17-17-28-38-32-63-7-40-42-71-84-74-46-3-86-20-116-50-79-80-64-224 33-321 56-56 126-84 191-84 49 0 96 16 130 51 30 30 48 70 51 115 3 42 34 78 74 85 25 4 46 15 63 32 38 38 50 87 33 143-3 9-6 19-11 29l-64-64c-13-13-34-13-47 0-13 13-13 34 0 47l75 75c0 0 0 0 0 0l172 172c7-7 14-7 21 0l25 25 11-11 14 14-11 11 15 14 7-14 14 14-11 11 25 25c7 7 7 14 0 21l-64 64c-3 3-7 5-10 5z m-421-431c37 0 67-30 67-67 0-36-30-66-67-66-36 0-66 30-66 66 0 37 30 67 66 67z m-177-150c8 0 17-4 23-10l61-61c13-13 13-34 0-47-13-13-34-13-47 0l-61 61c-13 13-13 34 0 47 7 6 15 10 24 10z" horiz-adv-x="1000" />

<glyph glyph-name="helicopter" unicode="&#xe844;" d="M600 717a33 33 0 0 1-33-34l-334 0a33 33 0 1 1 0-66l334 0 0-100-480 0-14 70c-4 17-19 30-36 30-21 0-37-17-37-37l0-117c0-28 17-53 43-62 59-22 159-59 194-70 50-15 118-138 118-138l0 0c33-65 100-110 178-110l267 0c62 0 114 43 129 100l-80 0c-50 0-97 29-119 74l-39 78c-11 22 5 48 30 48l176 0c-46 80-132 134-230 134l-34 0 0 100 334 0a33 33 0 1 1 0 66l-334 0a33 33 0 0 1-33 34z m365-633a33 33 0 0 1-28-19c0 0-26-48-70-48l-534 0a33 33 0 1 1 0-67l534 0c89 0 130 85 130 85a33 33 0 0 1-32 49z" horiz-adv-x="1000" />

<glyph glyph-name="home-page" unicode="&#xe845;" d="M500 783a33 33 0 0 1-23-9l-364-298a33 33 0 0 1-1 0l-1-2 0 0a33 33 0 0 1-11-24 33 33 0 0 1 33-33l34 0 0-367c0-37 30-67 66-67l534 0c37 0 66 30 66 67l0 367 34 0a33 33 0 0 1 33 33 33 33 0 0 1-11 24l0 1a33 33 0 0 1-2 2l-120 98 0 142c0 18-15 33-34 33l-33 0c-18 0-33-15-33-33l0-60-144 117a33 33 0 0 1-23 9z m-100-466l200 0 0-267-200 0 0 267z" horiz-adv-x="1000" />

<glyph glyph-name="hot-air-balloon" unicode="&#xe846;" d="M500 783c-166 0-333-134-333-300 0-166 233-366 233-366l0 0c-62 97-212 387 33 633-191-256-36-526 36-626l31 626 31-626c72 100 227 370 36 626 245-246 95-536 33-633l0 0c0 0 233 200 233 366 0 166-167 300-333 300z m-100-733l0-100c0-18 15-33 33-33l134 0c18 0 33 15 33 33l0 100-200 0z" horiz-adv-x="1000" />

<glyph glyph-name="hotel-room-key" unicode="&#xe847;" d="M450 817c-101 0-183-83-183-184l0-20c-76-15-134-82-134-163 0-68 42-127 100-153l0-280 50-67 34 0 50 67 0 33-34 33 34 34-34 33 34 33 0 114c59 26 100 85 100 153 0 54-27 102-67 133l0-66c0-51-38-92-87-99-4-1-8-1-13-1-37 0-67 30-67 66 0 25 14 46 34 58l0-24a33 33 0 1 1 66 0l0 116c0 65 52 117 117 117 30 0 57-11 77-30-34-25-57-62-63-104 43-42 69-101 69-166 0-25-4-50-11-72l76-246c12-36 51-57 87-45l166 51c37 12 57 51 46 87l-124 398c0 0-3 11-5 17-15 47-49 81-91 98 12-38 12-79 1-118 11-34-9-71-43-82-7-2-13-3-20-3-28 0-54 18-63 46-7 23-1 46 14 63 0-3 1-7 1-11a33 33 0 1 1 66 0c0 101-82 184-183 184z" horiz-adv-x="1000" />

<glyph glyph-name="iceberg" unicode="&#xe848;" d="M500 783a33 33 0 0 1-24-9l-56-57-53 0a33 33 0 0 1-30-18l-99-182c-2 0-3 0-5 0-55 0-118 30-118 30a33 33 0 0 1-16 3 33 33 0 0 1-14-63c0 0 71-37 148-37 65 0 116 22 134 31 18-9 68-31 133-31 65 0 115 22 133 31 18-9 69-31 134-31 77 0 148 37 148 37a33 33 0 1 1-30 60c0 0-54-26-106-30l-82 180a33 33 0 0 1-45 16l-45-22-83 83a33 33 0 0 1-24 9z m0-80l76-77a33 33 0 0 1 39-6l36 18 50-110c-30 8-53 19-53 19a33 33 0 0 1-30 0c0 0-62-30-118-30-56 0-118 30-118 30a33 33 0 0 1-30 0c0 0-12-6-28-11l63 114 46 0a33 33 0 0 1 24 10l43 43z m-133-294c-34-12-83-26-134-26-22 0-44 3-64 7l-32-57c-6-12-5-25 3-36l266-367c6-8 15-12 25-13 1 0 2 0 2 0 9 0 18 3 24 9l83 83 45-22c14-7 32-3 41 9l234 300c7 10 9 23 4 34l-28 61c-22-4-45-8-69-8-51 0-100 14-134 26-33-12-82-26-133-26-51 0-100 14-133 26z" horiz-adv-x="1000" />

<glyph glyph-name="identification-documents" unicode="&#xe849;" d="M467 783c-37 0-67-29-67-66l0-67 200 0 0 67c0 37-30 66-67 66l-66 0z m133-133l0-33c0-37-30-67-67-67l-66 0c-37 0-67 30-67 67l0 33-267 0c-36 0-66-30-66-67l0-533c0-37 30-67 66-67l734 0c37 0 66 30 66 67l0 533c0 37-29 67-66 67l-267 0z m-267-167c32 0 42-22 42-22 28 0 42-31 42-68 0-18-8-33-8-33 3-2 8-8 7-18-2-20-10-24-15-25-2-18-20-41-26-44l0-30c13-41 73-21 92-93l-267 0c18 72 79 52 92 93l0 30c-7 3-24 26-26 44-5 1-13 5-15 25-1 10 3 16 6 18 0 0-7 17-7 33 0 49 24 90 83 90z m234-133l200 0c18 0 33-15 33-33 0-19-15-34-33-34l-200 0c-19 0-34 15-34 34 0 18 15 33 34 33z m0-133l200 0c18 0 33-15 33-34 0-18-15-33-33-33l-200 0c-19 0-34 15-34 33 0 19 15 34 34 34z" horiz-adv-x="1000" />

<glyph glyph-name="increase" unicode="&#xe850;" d="M800 750l0-67-100 0a33 33 0 0 1-27-13l-90-120-83 0a33 33 0 0 1-24-10l-90-90-86 0a33 33 0 0 1-18-6l-92-61-23 0a33 33 0 1 1 0-66l33 0a33 33 0 0 1 19 5l91 61 90 0a33 33 0 0 1 24 10l90 90 86 0a33 33 0 0 1 27 14l90 120 83 0 0-67 100 100-100 100z m-33-267c-19 0-34-15-34-33l0-467 134 0 0 467c0 18-15 33-34 33l-66 0z m-200-100c-19 0-34-15-34-33l0-367 134 0 0 367c0 18-15 33-34 33l-66 0z m-200-100c-19 0-34-15-34-33l0-267 134 0 0 267c0 18-15 33-34 33l-66 0z m-200-100c-19 0-34-15-34-33l0-167 134 0 0 167c0 18-15 33-34 33l-66 0z" horiz-adv-x="1000" />

<glyph glyph-name="infinity" unicode="&#xe851;" d="M250 600c-138 0-250-112-250-250 0-138 112-250 250-250 81 0 153 38 198 98-18 26-34 53-49 78-27-55-84-93-149-93-92 0-167 75-167 167 0 93 75 167 167 167 51 0 85-19 119-53 34-34 64-83 95-135 32-52 64-107 108-152 44-44 104-77 178-77 138 0 250 112 250 250 0 138-112 250-250 250-81 0-152-38-198-98 18-26 34-53 49-78 27 55 84 93 149 93 93 0 167-74 167-167 0-92-74-167-167-167-51 0-85 19-119 53-34 34-64 83-95 135-31 53-64 107-108 152-44 44-104 77-178 77z" horiz-adv-x="1000" />

<glyph glyph-name="law" unicode="&#xe852;" d="M548 767a42 42 0 0 1-29-13l-42-42-173-172c0-1 0-1 0-1l-41-41a42 42 0 1 1 59-59l12 12 80-80-318-318a42 42 0 1 1 59-59l318 318 86-86-12-13a42 42 0 1 1 59-59l42 42 173 173 56 56a42 42 0 0 1-31 71 42 42 0 0 1-28-12l-27-27-225 226 12 12a42 42 0 0 1-30 72z m36-709a42 42 0 1 1 0-83l291 0a42 42 0 1 1 0 83l-291 0z" horiz-adv-x="1000" />

<glyph glyph-name="lifebuoy" unicode="&#xe853;" d="M500 750c-86 0-166-28-231-74l-5 4c-13 13-34 13-47 0l-47-47c-13-13-13-34 0-47l4-4c-46-66-74-146-74-232 0-86 28-166 74-231l-4-5c-13-13-13-34 0-47l47-47c13-13 34-13 47 0l4 4c66-46 146-74 232-74 86 0 166 28 232 74l4-4c13-13 34-13 47 0l47 47c13 13 13 34 0 47l-4 5c46 65 74 145 74 231 0 86-28 166-74 232l4 4c13 13 13 34 0 47l-47 47c-13 13-34 13-47 0l-4-4c-66 46-146 74-232 74z m0-67c68 0 131-20 184-55l-73-73c-33 18-71 28-111 28-40 0-78-10-111-28l-73 73c53 35 116 55 184 55z m-278-149l73-73c-18-33-28-71-28-111 0-40 10-78 28-111l-73-73c-35 53-55 116-55 184 0 68 20 131 55 184z m556 0c35-53 55-116 55-184 0-68-20-131-55-184l-73 73c18 33 28 71 28 111 0 40-10 78-28 111l73 73z m-278-17c92 0 167-75 167-167 0-92-75-167-167-167-92 0-167 75-167 167 0 46 19 88 49 118 30 30 72 49 118 49z m-111-372c33-18 71-28 111-28 40 0 78 10 111 28l73-73c-53-35-116-55-184-55-68 0-131 20-184 55l73 73z" horiz-adv-x="1000" />

<glyph glyph-name="lighthouse" unicode="&#xe854;" d="M500 751a33 33 0 0 1-33-34l0-16-85-57c-13-8-18-23-14-37 4-14 17-24 32-24l0-100c-18 0-33-15-33-33l-34 0a33 33 0 1 1 0-67l10 0-54-300-4 0c-30 0-57-20-64-50l-20-80c10-2 21-3 32-3 67 0 134 33 134 33 0 0 66-33 133-33 67 0 133 33 133 33 0 0 67-33 134-33 11 0 22 1 32 3l-20 80c-7 30-34 50-64 50l-4 0-54 300 10 0a33 33 0 1 1 0 67l-34 0c0 18-15 33-33 33l0 100c15 0 28 10 32 24 4 14-1 29-13 37l-86 57 0 16a33 33 0 0 1-33 34z m-33-168l66 0 0-100-66 0 0 100z m-56-200l178 0 54-300-76 0 0 67c0 18-15 33-34 33-18 0-33-15-33-33l0-67-143 0 54 300z m122-66a33 33 0 0 1-33-34 33 33 0 0 1 33-33 33 33 0 0 1 34 33 33 33 0 0 1-34 34z" horiz-adv-x="1000" />

<glyph glyph-name="loading-bar" unicode="&#xe855;" d="M167 517c-92 0-167-75-167-167 0-92 75-167 167-167l666 0c92 0 167 75 167 167 0 92-75 167-167 167l-666 0z m433-67l233 0c56 0 100-44 100-100 0-56-44-100-100-100l-233 0 0 200z" horiz-adv-x="1000" />

<glyph glyph-name="london-cab-front-view" unicode="&#xe856;" d="M441 750c-15 0-27-9-32-23l-3-10-53 0c-86 0-159-67-166-153l-10-121c-45-17-77-59-77-110l0-183c-18 0-33-15-33-33 0-19 15-34 33-34l33 0 0-33c0-37 30-67 67-67 37 0 67 30 67 67l0 33 466 0 0-33c0-37 30-67 67-67 37 0 67 30 67 67l0 33 33 0c18 0 33 15 33 34 0 18-15 33-33 33l0 183c0 51-32 93-77 110l-10 121c-7 86-80 153-166 153l-52 0-4 10c-5 14-17 23-32 23l-118 0z m-88-100l294 0c51 0 95-40 99-92l10-112c-1 0-1 0-1 0-59 18-147 37-255 37-108 0-196-19-255-37 0 0 0 0-1 0l10 112c4 52 48 92 99 92z m-136-267c27 0 50-22 50-50 0-27-23-50-50-50-28 0-50 23-50 50 0 28 22 50 50 50z m283 0c55 0 100-44 100-100l0-100c0-18-15-33-33-33l-134 0c-18 0-33 15-33 33l0 100c0 56 45 100 100 100z m283 0c28 0 50-22 50-50 0-27-22-50-50-50-27 0-50 23-50 50 0 28 23 50 50 50z" horiz-adv-x="1000" />

<glyph glyph-name="luggage-trolley" unicode="&#xe857;" d="M67 683a33 33 0 1 1 0-66l33 0c17 0 22-4 26-9 4-5 7-13 7-25l0-333c0-92 75-167 167-167l33 0 434 0 100 0a33 33 0 1 1 0 67l-567 0c-56 0-100 44-100 100l0 333c0 23-6 48-23 68-17 20-45 32-77 32l-33 0z m700-600a67 67 0 0 1-67-66 67 67 0 0 1 67-67 67 67 0 0 1 66 67 67 67 0 0 1-66 66z m-434 0a67 67 0 0 1-66-66 67 67 0 0 1 66-67 67 67 0 0 1 67 67 67 67 0 0 1-67 66z m167 567c-18 0-33-15-33-33l-167 0c-18 0-33-15-33-34l0-333c0-18 15-33 33-33l500 0c18 0 33 15 33 33l0 333c0 19-15 34-33 34l-167 0c0 18-15 33-33 33l-100 0z m-83-167c27 0 50-22 50-50 0-27-23-50-50-50-28 0-50 23-50 50 0 28 22 50 50 50z m286-33l30-82-136-51-30 82 136 51z" horiz-adv-x="1000" />

<glyph glyph-name="marshmallow" unicode="&#xe858;" d="M833 717a33 33 0 0 1-23-10l-45-45c-29 24-60 40-91 49-15 4-31 6-46 6-23-1-45-8-62-23a33 33 0 0 1-5-5l-100-100c-29-29-32-72-22-111-15 4-30 6-44 5-23 0-45-8-63-23a33 33 0 0 1-5-4l-100-100c-29-29-32-73-21-113 8-31 25-62 49-91l-112-112a33 33 0 1 1 47-47l112 112c29-24 60-41 91-49 40-11 84-8 113 21 12 13 88 88 100 100 0 0 0 0 0 0a33 33 0 0 1 5 6c24 29 27 69 17 106 39-10 82-7 111 22 13 12 88 87 100 100a33 33 0 0 1 5 5c25 30 27 70 17 108-9 31-25 62-49 91l45 45a33 33 0 0 1-24 57z m-205-67c3 0 7 0 11 0 5-1 11-2 17-4 19-5 40-16 61-32l-7-7a33 33 0 1 1 47-47l7 7c16-21 27-42 32-61 8-26 3-41-4-48-7-7-22-11-48-4-26 7-58 25-87 53-28 29-46 61-53 87-7 26-3 41 4 48 4 4 10 7 20 8z m-88-76c11-39 35-79 70-114 35-35 75-59 114-70-12-13-28-28-32-32a33 33 0 0 1 0 0c-7-7-22-11-48-4-26 7-58 25-87 53-28 29-46 61-53 87-7 26-3 41 4 48l32 32z m-145-157c3 0 7 0 10-1 6 0 11-1 18-3 18-5 40-16 61-32l-24-24a33 33 0 1 1 47-47l24 24c16-21 27-43 32-61 7-26 3-41-4-48-7-8-23-12-48-5-26 7-59 26-87 54-28 28-47 61-54 87-7 25-3 41 5 48 4 4 10 7 20 8z m-88-76c11-39 35-79 70-114 35-35 75-59 114-70-13-13-28-29-32-32l0 0c-7-8-23-12-48-5-26 7-59 26-87 54-28 28-47 61-54 87-7 25-3 41 5 48l32 32z" horiz-adv-x="1000" />

<glyph glyph-name="medium-risk" unicode="&#xe859;" d="M500 752c-28 0-52-17-62-41l-361-624c-7-10-10-22-10-35 0-36 29-66 66-66 2 0 3 0 5 0v0h724l0 0c1 0 3 0 5 0 36 0 66 30 66 66 0 13-3 25-10 35l0 1-362 623c-10 24-33 41-61 41z m0-635c-21 0-33 12-33 33s12 33 33 33c21 0 34-12 34-33s-13-33-34-33z m28 133h-55l-6 200h67l-6-200z" horiz-adv-x="1000" />

<glyph glyph-name="mountain" unicode="&#xe860;" d="M498 750a33 33 0 0 1-28-18l-165-327-52 38a33 33 0 0 1-51-15l-133-367a33 33 0 0 1 31-44l804 0a33 33 0 0 1 33 42l-105 367a33 33 0 0 1-4 9l-67 100a33 33 0 0 1-51 5l-66-65-113 255a33 33 0 0 1-33 20z m0-111l88-199-19-23-67 66-67-100-42 43 107 213z m230-175l41-61 10-35-46 15-33-66-37 82 65 65z m-479-101l48-36a33 33 0 0 1 6-4l-36-73-50 25 32 88z" horiz-adv-x="1000" />

<glyph glyph-name="museum" unicode="&#xe861;" d="M500 750a33 33 0 0 1-11-2l0 0-1 0a33 33 0 0 1-2-1l-321-134 0 0a50 50 0 0 1-32-46 50 50 0 0 1 50-50l634 0a50 50 0 0 1 50 50 50 50 0 0 1-32 46l0 0 0 0-322 134-1 1a33 33 0 0 1 0 0l-1 0 0 0a33 33 0 0 1-11 2z m0-100c18 0 33-15 33-33 0-19-15-34-33-34-18 0-33 15-33 34 0 18 15 33 33 33z m-300-200l0-267-33 0a33 33 0 1 1 0-66l666 0a33 33 0 1 1 0 66l-33 0 0 267-67 0 0-267-66 0 0 267-67 0 0-267-67 0 0 267-66 0 0-267-67 0 0 267-67 0 0-267-66 0 0 267-67 0z m-100-400a33 33 0 1 1 0-67l800 0a33 33 0 1 1 0 67l-800 0z" horiz-adv-x="1000" />

<glyph glyph-name="no-credit-cards" unicode="&#xe862;" d="M125 767a42 42 0 0 1-29-71l24-25c-24-15-40-41-40-71 0-23 19-42 42-42l111 0 125-125-236 0c-23 0-42-18-42-41l0-292c0-46 38-83 84-83l610 0 72-72a42 42 0 1 1 59 60l-750 750a42 42 0 0 1-30 12z m217-84l42-41 42-42 41-42 408 0c23 0 42 19 42 42 0 46-38 83-84 83l-491 0z m250-250l42-41 199-200 42-41 42-42 0 283c0 23-19 41-42 41l-283 0z" horiz-adv-x="1000" />

<glyph glyph-name="open-pane" unicode="&#xe863;" d="M167 717c-37 0-67-30-67-67l0-600c0-37 30-67 67-67l666 0c37 0 67 30 67 67l0 600c0 37-30 67-67 67l-666 0z m0-67l400 0 0-600-400 0 0 600z m177-200c-7 1-15-2-20-7l-75-75c-5-5-7-12-7-18 0-6 2-13 7-18l75-75c7-7 18-9 27-5 10 4 16 13 16 23l0 42 100 0a33 33 0 1 1 0 66l-100 0 0 42c0 10-6 19-16 23-2 1-4 2-7 2z" horiz-adv-x="1000" />

<glyph glyph-name="password" unicode="&#xe864;" d="M500 783c-128 0-233-104-233-233l0-67-67 0c-37 0-67-29-67-66l0-400c0-37 30-67 67-67l600 0c37 0 67 30 67 67l0 400c0 37-30 66-67 66l-67 0 0 67c0 124-98 224-221 231a33 33 0 0 1-12 2z m0-66c93 0 167-74 167-167l0-67-334 0 0 67c0 93 75 167 167 167z m-200-434c37 0 67-29 67-66 0-37-30-67-67-67-37 0-67 30-67 67 0 37 30 66 67 66z m200 0c37 0 67-29 67-66 0-37-30-67-67-67-37 0-67 30-67 67 0 37 30 66 67 66z m200 0c37 0 67-29 67-66 0-37-30-67-67-67-37 0-67 30-67 67 0 37 30 66 67 66z" horiz-adv-x="1000" />

<glyph glyph-name="pocket-compass" unicode="&#xe865;" d="M500 783a67 67 0 0 1-67-66 67 67 0 0 1 12-38c-176-27-312-178-312-362 0-203 165-367 367-367 203 0 367 164 367 367 0 184-136 335-312 362a67 67 0 0 1 12 38 67 67 0 0 1-67 66z m175-267c17 3 31-15 22-31l-123-222c-5-8-12-16-20-21l-195-122c-18-11-39 8-31 27l98 219c5 11 13 21 24 27l218 121c3 1 5 2 7 2z m-175-166a33 33 0 0 1-33-33 33 33 0 0 1 33-34 33 33 0 0 1 33 34 33 33 0 0 1-33 33z" horiz-adv-x="1000" />

<glyph glyph-name="price-tag" unicode="&#xe866;" d="M483 701l-375-375c-33-33-33-86 0-118l250-250c32-33 85-33 118 0l375 375c15 15 24 37 24 59v250c0 46-37 83-83 83h-250c-22 0-44-9-59-24z m246-184c-34 0-62 28-62 62s28 63 62 63 63-28 63-63-28-62-63-62z" horiz-adv-x="1000" />

<glyph glyph-name="purse" unicode="&#xe867;" d="M396 767a63 63 0 0 1-63-63 63 63 0 0 1 63-62 63 63 0 0 1 62 62 63 63 0 0 1-62 63z m208 0a63 63 0 0 1-62-63 63 63 0 0 1 62-62 63 63 0 0 1 63 62 63 63 0 0 1-63 63z m-104-167c-150 0-278-21-341-33a42 42 0 0 1 16-82c60 12 183 32 325 32 142 0 265-20 325-32a42 42 0 0 1 16 82c-63 12-191 33-341 33z m0-167c-167 0-333-36-333-36 0 0-84-214-84-339 0-46 38-83 84-83l666 0c46 0 84 37 84 83 0 125-84 339-84 339 0 0-166 36-333 36z" horiz-adv-x="1000" />

<glyph glyph-name="quick-mode-on" unicode="&#xe868;" d="M567 783a33 33 0 0 1-30-17l-264-430 0 0a33 33 0 0 1-6-19 33 33 0 0 1 33-34l183 0-49-326a33 33 0 0 1-1-7 33 33 0 0 1 34-33 33 33 0 0 1 29 17l0 0 264 430 0 0c4 6 7 12 7 19 0 19-15 34-34 34l-183 0 49 323a33 33 0 0 1 1 10 33 33 0 0 1-33 33z" horiz-adv-x="1000" />

<glyph glyph-name="recycle" unicode="&#xe869;" d="M643 717l-222-2c0 0 23-4 40-33l93-165-63-35 215-32 80 198-58-32-42 74c-9 15-22 26-43 27z m-304-34c-29 2-62-7-87-41l-3-3-27-45 172-101 50 82-44 79c-8 13-32 27-61 29z m-37-210l-211-32 58-34-43-73c-8-15-10-33-1-51l114-190c0 0-8 22 9 51l94 163 63-35-83 201z m549-19l-165-96 62-108 81 0c29 1 96 58 61 135l-1 4-38 65z m-218-199l-133-172 133-166 0 66 86 0c17 0 33 7 44 24l108 194c0 0-15-18-49-18l-189 0 0 72z m-305-72l-45-78c-15-26 2-112 85-121l4-1 61 1 0 199-105 0z" horiz-adv-x="1000" />

<glyph glyph-name="sail-boat" unicode="&#xe870;" d="M433 817a33 33 0 0 1-33-34l0-66 0-34 0-233-164 0 90 113a33 33 0 0 1-27 54 33 33 0 0 1-25-13l-133-166a33 33 0 0 1 26-55l266 0 334 0a33 33 0 0 1 32 40c-20 101-111 178-193 234-65 45-117 70-139 80l0 13 100 0a33 33 0 1 1 0 67l-134 0z m34-157c26-13 49-23 102-58 61-42 113-98 142-152l-244 0 0 210z m-367-343a33 33 0 0 1-33-34 33 33 0 0 1 5-17l0 0a33 33 0 0 1 0-1l118-175c14-4 29-7 43-7 35 0 76 17 89 23 28 14 62 14 89 0 13-6 55-23 89-23 34 0 76 17 89 23 28 14 61 14 89 0 13-6 54-23 89-23l158 178 0 0a33 33 0 0 1 8 22 33 33 0 0 1-33 34l-800 0z m-1-267a33 33 0 0 1-14-63c0 0 71-37 148-37 65 0 116 22 134 31 18-9 68-31 133-31 65 0 115 22 133 31 18-9 69-31 134-31 77 0 148 37 148 37a33 33 0 1 1-30 60c0 0-63-30-118-30-56 0-119 30-119 30a33 33 0 0 1-30 0c0 0-62-30-118-30-56 0-118 30-118 30a33 33 0 0 1-30 0c0 0-63-30-119-30-55 0-118 30-118 30a33 33 0 0 1-16 3z" horiz-adv-x="1000" />

<glyph glyph-name="shopping-cart" unicode="&#xe871;" d="M156 767l-73-1a42 42 0 1 1 1-83l45 0 137-329-50-80c-35-56 7-132 73-132l461 0a42 42 0 1 1 0 83l-461 0c-4 0-5 1-2 5a42 42 0 0 1 0 0l49 78 311 0c30 0 58 17 73 43l150 271c15 27-5 61-37 61l-614 0-24 58a42 42 0 0 1-39 26z m136-667a83 83 0 0 1-84-83 83 83 0 0 1 84-84 83 83 0 0 1 83 84 83 83 0 0 1-83 83z m416 0a83 83 0 0 1-83-83 83 83 0 0 1 83-84 83 83 0 0 1 84 84 83 83 0 0 1-84 83z" horiz-adv-x="1000" />

<glyph glyph-name="snorkel" unicode="&#xe872;" d="M825 783a33 33 0 0 1-33-25l-33-133a33 33 0 0 1 29-42l-120-458 0 0c-15-54-32-90-52-111-20-21-43-31-83-31-64 0-117 45-130 106 15 5 27 11 36 18 16 12 24 27 24 27a33 33 0 1 1-59 32c0 0-1-2-6-6-6-5-13-9-28-10a33 33 0 0 1-7 0c-14 1-22 5-27 10-6 4-7 6-7 6a33 33 0 0 1-29 18 33 33 0 0 1-29-50c0 0 8-15 23-27 10-8 25-15 42-19 14-97 97-171 197-171 53 0 98 17 131 50 32 34 52 81 68 141a33 33 0 0 1 0 0l167 634a33 33 0 0 1-32 41l-42 0z m-458-166c-80 0-169-8-213-20-35-10-64-38-69-76l-16-100c0 0 0 0 0 0-10-55 36-104 92-104l124 0c0-1 0 0 0-1 4-3 9-10 15-19 6-8 13-18 23-27 10-10 24-20 44-20 20 0 35 11 45 20 9 9 16 19 22 27 6 9 11 16 14 19 1 1 1 0 1 1l124 0c56 0 101 49 94 104l0 1-16 100c0 0 0 1 0 1-5 38-34 66-69 75l-1 1-1 0c-42 9-132 18-213 18z m0-67c75 0 168-10 198-16 11-3 19-12 20-20l0-1 16-100c2-17-9-30-28-30l-125 0c0 1 0 0-1 1-3 3-8 10-14 19-6 8-12 18-22 27-10 9-25 20-44 20-20 0-35-11-45-20-9-10-16-19-21-28-6-8-11-15-14-18-1-1-1 0-1-1l-125 0c-19 0-29 13-26 26l0 1 16 102 0 0c1 8 9 17 20 21l0 0 0 0c25 6 121 17 196 17z" horiz-adv-x="1000" />

<glyph glyph-name="speed" unicode="&#xe873;" d="M500 725c-253 0-458-206-458-458 0-81 21-160 61-229 8-13 21-21 36-21l722 0c15 0 29 8 36 21 40 69 61 148 61 229 0 252-205 458-458 458z m143-167c23 0 42-18 42-41 0-23-19-42-42-42s-41 19-41 42c0 23 18 41 41 41z m-143 42c23 0 42-19 42-42 0-23-19-41-42-41s-42 18-42 41c0 23 19 42 42 42z m-333-333c0 23 18 41 41 41s42-18 42-41c0-23-19-42-42-42s-41 19-41 42z m83-188c-23 0-42 19-42 42 0 23 19 42 42 42s42-19 42-42c0-23-19-42-42-42z m0 292c-23 0-42 19-42 42s19 41 42 41 42-18 42-41-19-42-42-42z m104 104c-23 0-41 19-41 42 0 23 18 41 41 41s42-18 42-41c0-23-19-42-42-42z m146-292c-46 0-83 38-83 84 0 46 37 83 83 83 15 0 29-4 42-11l174 99c20 11 45 4 56-16 12-20 5-45-15-56l-174-100c0-45-37-83-83-83z m250-115c-23 0-42 18-42 41 0 23 19 42 42 42s42-19 42-42c0-23-19-41-42-41z m42 157c-23 0-42 19-42 42 0 23 19 41 42 41s41-18 41-41c0-23-18-42-41-42z" horiz-adv-x="1000" />

<glyph glyph-name="sports-fishing" unicode="&#xe874;" d="M767 850c0-61 30-109 55-149 25-40 45-73 45-101 0-28-22-50-50-50-28 0-50 22-50 50l0 17 33 0-100 100 0-100 0-17c0-64 53-117 117-117a33 33 0 0 1 12 3c54 6 96 48 102 101a33 33 0 0 1 2 13c0 55-30 97-55 137-24 39-45 74-45 113l-66 0z m-434-400a33 33 0 0 1-33-33 33 33 0 0 1 5-18l54-101c-16-13-32-25-46-36-27-22-66-18-89 8-32 38-78 80-124 80l-17 0a17 17 0 0 1-16-17 17 17 0 0 1 0-4 17 17 0 0 1 0 0c4-52 66-146 66-146 0 0-62-93-66-145 0 0 0 0 0 0a17 17 0 0 1 0-5 17 17 0 0 1 16-16l17 0c58 0 103 45 131 82 17 24 51 26 73 5 21-21 48-43 76-64l-44-64 0 0a17 17 0 0 1-3-9 17 17 0 0 1 17-17 17 17 0 0 1 5 1l143 22c34-14 69-23 102-23 164 0 296 120 300 229a33 33 0 0 1 0 4 33 33 0 0 1-33 34c-34 0-77 200-267 200-6 0-11-1-17-1-59 19-161 34-250 34z m417-200c28 0 50-22 50-50 0-28-22-50-50-50-28 0-50 22-50 50 0 28 22 50 50 50z" horiz-adv-x="1000" />

<glyph glyph-name="spyglass" unicode="&#xe875;" d="M719 681a33 33 0 0 1-27-51l-232-133c-15-9-21-29-12-45l147-254c9-15 29-21 44-12l232 134a33 33 0 1 1 58 33l-179 310a33 33 0 0 1-31 18z m-311-290l-171-99c-16-9-21-29-12-44l81-142c9-15 29-20 45-11l171 99-114 197z m-223-204l-56-32a33 33 0 0 1-30 17 33 33 0 0 1-28-51l49-84a33 33 0 0 1 58 33l56 32-49 85z" horiz-adv-x="1000" />

<glyph glyph-name="statistics" unicode="&#xe876;" d="M500 767c-23 0-42-19-42-42l-333 0c-23 0-42-19-42-42 0-23 19-41 42-41l0-417c0-46 37-83 83-83l192 0-45-114c-11-25 8-53 36-53 15 0 30 10 35 24l57 143 34 0 57-143c6-14 20-24 36-24 27 0 46 28 35 53l-45 114 192 0c46 0 83 37 83 83l0 417c23 0 42 18 42 41 0 23-19 42-42 42l-333 0c0 23-19 42-42 42z m221-238c10 0 21-4 29-12 16-17 16-43 0-59l-137-137c-16-17-43-17-59 0l-96 95-95-95c-16-17-43-17-59 0l-54 53c-16 17-16 43 0 59 16 17 43 17 59 0l24-24 96 96c16 16 43 16 59 0l95-96 108 108c8 8 19 12 30 12z" horiz-adv-x="1000" />

<glyph glyph-name="statue-of-liberty" unicode="&#xe877;" d="M165 783c0 0 0-18-40-66-18-21-18-42-13-59 8-24 27-41 27-41l-6 0c-18 0-33-15-33-34 0-18 15-33 33-33l3 0c-3-5-2-12-2-23 0-26 9-37 30-37l31-153 78-128c-4-20-6-43-6-72 0-74 52-69 66-69 6-27 25-85 25-85l394 0 73 0 39 78c7 14 1 30-12 37l-55 27c-13 6-29 1-36-13l-18-36c-18 90-61 141-106 141l-115 0c-39 0-66 7-96 31l-58 42-78 51-85 210c16 2 28 16 28 32 0 19-15 34-33 34l-13 0c0 0 9 9 26 33 22 30 5 73-3 85-3-33-31-39-20-15 14 30-25 63-25 63z m376-184c-3 0-6-1-7-5l-22-84c-8-2-15-5-21-9l-59 46c-6 4-14-2-10-9l37-68c-3-5-6-10-8-16l-72 16c-7 2-11-7-5-12l74-59c0-3 1-6 2-9l-55-6c-7-1-8-11-1-13l76-31c18-30 43-55 71-55 28 0 53 25 70 55l77 31c7 2 5 12-2 13l-54 6c0 3 1 6 2 9l74 59c6 5 1 14-6 12l-71-16c-2 5-5 11-8 16l37 68c3 7-5 13-10 9l-59-46c-6 4-13 7-21 9l-23 84c0 4-3 5-6 5z" horiz-adv-x="1000" />

<glyph glyph-name="student-male" unicode="&#xe878;" d="M500 844c-10 0-20-2-30-5l-455-175c-20-8-20-36 0-44l152-58 0-170 0-38c-24-23-42-52-42-87 0-52 36-90 81-109 54-130 163-225 294-225 131 0 240 95 294 225 45 19 81 57 81 109 0 35-18 64-42 87l0 38 0 170 84 32 0-161c0-23 18-41 41-41 23 0 42 18 42 41l0 167c0 35-21 66-53 78l-417 161c-10 3-20 5-30 5z m-208-411l208 0 208 0c23 0 42-18 42-41l0-53a42 42 0 0 1 21-36c13-8 21-20 21-36 0-22-16-38-36-41a42 42 0 0 1-33-27c-43-111-129-182-223-182-94 0-179 71-222 182a42 42 0 0 1-34 27c-20 3-36 19-36 41 0 16 8 28 21 36a42 42 0 0 1 21 36l0 11 0 42c0 23 19 41 42 41z" horiz-adv-x="1000" />

<glyph glyph-name="super-mario" unicode="&#xe879;" d="M500 683c-133 0-240-76-317-168-76-91-124-199-140-282-14-66-2-119 15-153 12-24 24-37 32-46a42 42 0 0 1 0 0 42 42 0 0 1 33-17 42 42 0 0 1 2 0l750 0a42 42 0 0 1 35 18c8 8 21 21 32 45 17 34 29 87 16 153-17 83-65 191-141 282-77 92-184 168-317 168z m-125-125c11 0 22-4 30-12l95-95 96 95c10 11 26 15 40 11 15-4 26-16 29-30l42-167c6-22-8-45-30-50-4-1-7-2-10-2-19 0-36 13-41 32l-24 95-72-73c-17-16-43-16-59 0l-73 73-24-95c-6-22-28-36-51-30-22 5-36 28-30 50l42 167c3 14 14 26 29 30 3 1 7 1 11 1z m125-333c136 0 218-47 269-93 12-11 22-22 30-32l-598 0c8 10 18 21 30 32 51 46 133 93 269 93z" horiz-adv-x="1000" />

<glyph glyph-name="tasks" unicode="&#xe880;" d="M200 717c-36 0-67-31-67-67l0-67c0-36 31-66 67-66l600 0c36 0 67 30 67 66l0 67c0 36-31 67-67 67l-600 0z m100-67l500 0 0-67-500 0 0 67z m-100-200c-36 0-67-30-67-67l0-66c0-37 31-67 67-67l600 0c36 0 67 30 67 67l0 66c0 37-31 67-67 67l-600 0z m467-67l133 0 0-66-133 0 0 66z m-467-200c-36 0-67-30-67-66l0-67c0-36 31-67 67-67l600 0c36 0 67 31 67 67l0 67c0 36-31 66-67 66l-600 0z m300-66l300 0 0-67-300 0 0 67z" horiz-adv-x="1000" />

<glyph glyph-name="taxi-mobile-payment-euro" unicode="&#xe881;" d="M67 783c-2 0-4 0-5 0-33-2-59-28-62-61 0-2 0-4 0-5l0-734c0-18 7-35 20-47 3-3 6-6 9-8 11-7 24-11 38-11l400 0c36 0 66 30 66 66l0 734c0 37-30 66-66 66l-367 0-33 0z m0-100l400 0 0-600-400 0 0 600z m533-66l0-67 126 0c14-7 25-19 31-34l35-99c5-15-8-31-24-28-46 7-102 13-168 15l0-87 33 0c19 0 34-15 34-34 0-18-15-33-34-33l-33 0 0-176c102 2 210 8 210 8l0-38c0-34 28-61 62-61 34 0 61 27 61 61l0 214c0 41-21 79-55 101l-63 177c-13 37-44 65-82 76-11 3-22 5-34 5l-99 0z m-244-67c-6 0-11 0-16-1-38-1-68-9-91-21-57-28-75-78-80-111l-36 0 0-34 34 0c0-1-1-15 2-33l-36 0 0-33 16 0 28 0c9-23 24-47 50-66 21-15 49-27 86-32 13-1 27-2 43-2 19 0 34 1 44 2l0 58c-10-1-26-2-44-2-53 0-82 19-98 42l109 0 0 33-125 0c-4 17-4 31-4 33l129 0 0 14 0 20-93 0-32 0c6 22 21 49 55 64 16 6 35 11 60 11 18 0 31-1 42-3l0 57c-10 2-27 4-43 4z m439-265c25 0 46-20 46-45 0-25-21-46-46-46-26 0-46 21-46 46 0 25 20 45 46 45z m-528-235c18 0 33-15 33-33 0-19-15-34-33-34-19 0-34 15-34 34 0 6 2 12 5 17 1 1 1 1 1 1 2 3 3 5 5 6 6 6 14 9 23 9z" horiz-adv-x="1000" />

<glyph glyph-name="taxi-mobile-payment" unicode="&#xe882;" d="M67 783c-13 0-24-3-34-9-20-11-33-32-33-57l0-734c0-24 13-46 33-58 10-5 21-8 34-8l400 0c36 0 66 30 66 66l0 91 0 332 0 144 0 67 0 100c0 37-30 66-66 66l-400 0z m0-100l400 0 0-66 0-67 0-146 0-321-334 0-66 0 0 600z m533-66l0-67 126 0c14-7 25-19 31-34l35-99c5-15-8-31-24-28-46 7-102 13-168 15l0-87 33 0c19 0 34-15 34-34 0-18-15-33-34-33l-33 0 0-176c102 2 210 8 210 8l0-38c0-34 28-61 62-61 34 0 61 27 61 61l0 214c0 41-21 79-55 101l-63 177c-13 37-44 65-82 76-11 3-22 5-34 5l-99 0z m-367-34l0-47c-37-9-60-35-60-72 0-26 11-45 33-57 9-5 20-9 32-11l31-6c27-6 37-13 37-26 0-7-4-14-10-19-4-2-7-4-12-5-5-1-10-2-15-2-25 0-42 11-44 28l-34 0-23 0c0-7 2-15 4-21 8-25 30-42 61-49l0-32 0-14 67 0 0 25 0 22c41 9 65 35 65 74 0 10-1 18-4 26-8 22-28 35-63 42l-15 3-15 3c-25 4-36 12-36 25 0 15 14 25 35 25 13 0 24-4 31-12 4-4 7-10 7-16l55 0c0 7-1 14-3 20-6 19-20 33-40 43-5 2-11 4-17 6l0 47-17 0-50 0z m562-298c25 0 46-20 46-45 0-25-21-46-46-46-26 0-46 21-46 46 0 25 20 45 46 45z m-528-235c18 0 33-15 33-33 0-19-15-34-33-34-19 0-34 15-34 34 0 6 2 12 5 17 1 1 1 1 1 1 2 3 3 5 5 6 6 6 14 9 23 9z" horiz-adv-x="1000" />

<glyph glyph-name="taxi" unicode="&#xe883;" d="M424 783c-14 0-27-9-32-22l-14-44-57 0c-57 0-107-36-126-90l-68-196c-37-24-60-65-60-111l0-237c0-36 30-66 66-66 37 0 67 30 67 66l0 42c0 0 176-8 300-8 124 0 300 8 300 8l0-42c0-36 30-66 67-66 37 0 66 30 66 66l0 237c0 46-23 87-59 111l-69 196c-19 54-69 90-126 90l-57 0-14 44c-5 13-18 22-32 22l-152 0z m-103-133l358 0c28 0 54-18 63-45l38-109c6-17-8-34-26-31-65 10-149 18-254 18-104 0-188-8-254-18-18-3-32 14-26 31l38 109c9 27 35 45 63 45z m-104-300c27 0 50-22 50-50 0-28-23-50-50-50-28 0-50 22-50 50 0 28 22 50 50 50z m183 0l200 0c18 0 33-15 33-33 0-19-15-34-33-34l-200 0c-18 0-33 15-33 34 0 18 15 33 33 33z m383 0c28 0 50-22 50-50 0-28-22-50-50-50-27 0-50 22-50 50 0 28 23 50 50 50z" horiz-adv-x="1000" />

<glyph glyph-name="test-tube" unicode="&#xe884;" d="M375 725c-23 0-42-19-42-42 0-23 19-41 42-41l0-209-232-324 0 0c-11-14-18-31-18-51 0-46 37-83 83-83l584 0c46 0 83 37 83 83 0 20-7 37-18 51l0 0-232 324 0 209c23 0 42 18 42 41 0 23-19 42-42 42l-250 0z m83-83l84 0 0-209-84 0 0 209z m84-334c23 0 41-18 41-41 0-23-18-42-41-42-23 0-42 19-42 42 0 23 19 41 42 41z m-146-125c34 0 62-28 62-62 0-35-28-63-62-63-35 0-63 28-63 63 0 34 28 62 63 62z" horiz-adv-x="1000" />

<glyph glyph-name="torch" unicode="&#xe885;" d="M563 783a33 33 0 0 1-32-27c0 0-7-39-22-77-7-19-16-38-25-49-9-11-15-13-17-13-9 0-11 1-15 6-5 4-9 12-12 21-7 19-7 40-7 40a33 33 0 0 1-63 14c-31-62-103-166-103-281 0-107 75-189 75-189a33 33 0 1 1 50 44c0 0-59 71-59 145 0 59 30 121 59 179 5-7 6-14 13-21 14-14 37-25 62-25 30 0 54 19 69 39 16 20 27 43 35 66 2 5 1 5 3 9 19-32 40-68 54-96 24-47 39-90 39-151 0-72-59-145-59-145a33 33 0 1 1 51-44c0 0 74 84 74 189 0 72-18 129-45 181-27 53-61 103-95 167a33 33 0 0 1-30 18z m-63-366c-37 0-67-15-67-34l31-400c2-19 17-33 36-33 19 0 35 14 36 33l31 400c0 19-30 34-67 34z" horiz-adv-x="1000" />

<glyph glyph-name="touch-id" unicode="&#xe886;" d="M500 783c-179 0-333-109-399-264a33 33 0 1 1 61-26c56 131 186 224 338 224 90 0 172-32 235-86a33 33 0 1 1 43 51c-75 63-172 101-278 101z m0-133c-35 0-69-6-100-17a33 33 0 1 1 22-63c25 9 51 13 78 13 129 0 233-104 233-233 0-98-33-322-33-322a33 33 0 1 1 66-10c0 0 34 220 34 332 0 165-135 300-300 300z m350-74a33 33 0 0 1-28-50c28-52 45-112 45-176 0-36-6-72-16-105a33 33 0 1 1 64-19c12 39 18 81 18 124 0 75-19 146-53 208a33 33 0 0 1-30 18z m-562-28a33 33 0 0 1-24-13c-40-51-64-116-64-185 0-157-26-259-26-259a33 33 0 1 1 65-16c0 0 28 111 28 275 0 54 18 104 49 144a33 33 0 0 1-28 54z m212-31c-92 0-167-75-167-167 0-234-32-356-32-356a33 33 0 1 1 65-17c0 0 34 133 34 373 0 56 44 100 100 100 56 0 100-44 100-100 0-40-2-82-4-122a33 33 0 1 1 66-4c3 41 5 84 5 126 0 92-75 167-167 167z m-401-106a33 33 0 0 1-31-32c-1-9-1-19-1-29 0-36 4-72 13-106a33 33 0 1 1 64 17c-7 28-11 58-11 89 0 8 1 17 1 25a33 33 0 0 1-35 36z m401-27a33 33 0 0 1-33-34c0-91-5-165-12-224a33 33 0 1 1 67-7c6 61 11 138 11 231a33 33 0 0 1-33 34z m115-275a33 33 0 0 1-33-30c-8-67-15-112-15-112a33 33 0 1 1 66-11c0 0 7 47 15 115a33 33 0 0 1-33 38z m-147-88a33 33 0 0 1-33-27c-5-23-8-33-8-33a33 33 0 1 1 63-20c0 0 4 14 10 39a33 33 0 0 1-32 41z" horiz-adv-x="1000" />

<glyph glyph-name="tower-of-pisa" unicode="&#xe887;" d="M484 748c-9 1-17-5-19-14l-12-83-50 8c-9 1-17-5-19-14l-97-628-154 0a33 33 0 1 1 0-67l734 0a33 33 0 1 1 0 67l-242 0 89 577c1 9-5 18-14 19l-50 8 13 82c1 9-5 18-14 19l-165 26z m45-41c9-1 15-10 14-19l-8-49-33 5 8 49c1 9 10 15 19 14z m66-10c9-2 15-10 14-19l-8-50-33 5 8 50c1 9 10 15 19 14z m-153-112c10-1 16-10 14-19l-7-49-33 5 7 49c2 10 10 16 19 14z m66-10c10-1 16-10 14-19l-7-49-33 5 7 49c2 9 10 16 19 14z m66-10c9-1 16-10 14-19l-7-49-33 5 7 49c2 9 10 15 19 14z m66-10c9-2 15-10 14-19l-7-50-33 6 7 49c2 9 10 15 19 14z m-218-101c9-2 16-10 14-19l-7-50-33 5 7 50c2 9 10 15 19 14z m66-11c9-1 15-10 14-19l-8-49-32 5 7 49c2 10 10 16 19 14z m66-10c9-1 15-10 14-19l-8-49-33 5 8 49c1 9 10 16 19 14z m66-10c9-1 15-10 14-19l-8-49-33 5 8 49c1 9 10 15 19 14z m-218-101c9-2 15-10 14-19l-8-50-33 5 8 50c1 9 10 15 19 14z m66-10c9-2 15-10 14-19l-8-50-33 5 8 50c1 9 10 15 19 14z m66-11c9-1 15-9 14-19l-8-49-33 5 8 49c1 10 10 16 19 14z m66-10c9-1 15-10 13-19l-7-49-33 5 8 49c1 9 9 16 19 14z m-218-101c9-1 15-10 14-19l-8-49-33 5 8 49c1 9 10 15 19 14z m66-10c9-2 15-10 13-19l-7-50-33 5 8 50c1 9 9 15 19 14z m65-10c9-2 16-10 14-19l-7-50-33 5 7 50c2 9 10 15 19 14z m66-11c9-1 16-9 14-18l-7-50-33 5 7 50c2 9 10 15 19 13z" horiz-adv-x="1000" />

<glyph glyph-name="train-ticket" unicode="&#xe888;" d="M933 444v173c0 37-29 66-66 66h-734c-36 0-66-29-66-66v-173c38-14 66-50 66-94s-28-80-66-94v-173c0-36 30-66 66-66h734c37 0 66 30 66 66v173c-38 14-66 51-66 94s28 80 66 94z m-233-394c-18 0-33 15-33 33 0 19 15 34 33 34s33-15 33-34c0-18-15-33-33-33z m0 133c-18 0-33 15-33 34 0 18 15 33 33 33s33-15 33-33c0-19-15-34-33-34z m0 134c-18 0-33 15-33 33 0 18 15 33 33 33s33-15 33-33c0-18-15-33-33-33z m0 133c-18 0-33 15-33 33 0 19 15 34 33 34s33-15 33-34c0-18-15-33-33-33z m0 133c-18 0-33 15-33 34 0 18 15 33 33 33s33-15 33-33c0-19-15-34-33-34z" horiz-adv-x="1000" />

<glyph glyph-name="tram" unicode="&#xe889;" d="M500 850c-150 0-247-42-247-42a33 33 0 1 1 27-61c0 0 31 14 87 24l0-21a33 33 0 1 1 66 0l0 30c21 2 43 3 67 3 24 0 46-1 67-3l0-30a33 33 0 1 1 66 0l0 21c56-10 87-24 87-24a33 33 0 1 1 27 61c0 0-97 42-247 42z m0-167c-267 0-333-78-333-133l0-433c0-62 41-113 98-128l-42-106 77 0 40 100 320 0 40-100 77 0-42 106c57 15 98 66 98 128l0 433c0 55-66 133-333 133z m-133-66l266 0c19 0 34-15 34-34 0-18-15-33-34-33l-266 0c-19 0-34 15-34 33 0 19 15 34 34 34z m-100-134l466 0c19 0 34-15 34-33l0-167c0-18-15-33-34-33l-466 0c-19 0-34 15-34 33l0 167c0 18 15 33 34 33z m233-300c37 0 67-29 67-66 0-37-30-67-67-67-37 0-67 30-67 67 0 37 30 66 67 66z" horiz-adv-x="1000" />

<glyph glyph-name="transportation" unicode="&#xe890;" d="M309 750c-60 0-112-40-128-98-10-36-22-79-31-116-4-19-9-36-11-50-1-1-1-2-1-3l-38 0a33 33 0 1 1 0-66l33 0 0-367 0-33c0-37 30-67 67-67 37 0 67 30 67 67l0 12c59-7 137-12 233-12 96 0 174 5 233 12l0-12c0-37 30-67 67-67 37 0 67 30 67 67l0 33 0 367 33 0a33 33 0 1 1 0 66l-38 0c0 1 0 2 0 3-3 14-7 31-12 50-9 37-21 80-31 116-15 58-68 98-128 98l-382 0z m0-67l382 0c30 0 56-19 64-49 10-35 21-78 30-114 5-18 9-35 11-48 3-11 4-19 4-20a33 33 0 0 1 0-7l0-9c0-16-11-30-27-33-42-7-133-20-273-20-140 0-231 13-273 20-16 3-27 17-27 33l0 8a33 33 0 0 1 0 8c1 1 1 9 4 20 2 13 6 30 11 48 9 36 20 79 30 114 8 30 34 49 64 49z m-59-433c28 0 50-22 50-50 0-28-22-50-50-50-28 0-50 22-50 50 0 28 22 50 50 50z m500 0c28 0 50-22 50-50 0-28-22-50-50-50-28 0-50 22-50 50 0 28 22 50 50 50z m-350-33l200 0c18 0 33-15 33-34 0-18-15-33-33-33l-200 0c-18 0-33 15-33 33 0 19 15 34 33 34z" horiz-adv-x="1000" />

<glyph glyph-name="travel-mug" unicode="&#xe891;" d="M200 717a33 33 0 1 1 0-67l0-567c0-55 45-100 100-100l400 0c55 0 100 45 100 100l0 124c20 7 49 18 83 38 27 15 55 35 78 61 22 25 39 58 39 96 0 82-66 148-148 148l-52 0 0 100a33 33 0 1 1 0 67l-600 0z m600-234l52 0c46 0 81-35 81-81 0-18-7-35-23-53-15-17-37-33-60-46-18-10-35-18-50-24l0 204z" horiz-adv-x="1000" />

<glyph glyph-name="treasure-chest" unicode="&#xe892;" d="M267 717c-55 0-92-36-110-67-18-31-23-61-23-61a33 33 0 0 1 0-14l32-125-32-125a33 33 0 0 1-1-8l0-300a33 33 0 0 1 34-34l666 0a33 33 0 0 1 34 34l0 300a33 33 0 0 1-1 8l-32 125 32 125a33 33 0 0 1 0 14c0 0-5 30-23 61-18 31-55 67-110 67l-466 0z m0-67l466 0c28 0 41-14 52-34 10-16 12-28 13-33l-596 0c1 5 3 17 13 33 11 20 24 34 52 34z m233-133c37 0 67-30 67-67 0-3-1-7-1-10 10 6 21 10 34 10 29 0 54-19 63-45 10 7 25 12 38 12 50 0 63-44 66-67l-546 0c6 38 29 67 69 67 21 0 32-8 47-20-2 6-4 13-4 20 0 37 30 66 67 66 14 0 27-4 37-11 9 26 34 45 63 45z m-300-234l61 0c-10-28-33-50-61-60l0 60z m233 0l134 0 0-100c0-36-30-66-67-66-37 0-67 30-67 66l0 100z m307 0l60 0 0-60c-28 10-50 32-60 60z m-240-66a33 33 0 0 1-33-34 33 33 0 0 1 33-33 33 33 0 0 1 33 33 33 33 0 0 1-33 34z m-300-106c28-10 51-33 61-61l-61 0 0 61z m600 0l0-61-60 0c10 28 32 51 60 61z" horiz-adv-x="1000" />

<glyph glyph-name="user-manual" unicode="&#xe893;" d="M300 750c-39 0-89-9-131-17-43-9-77-17-77-17a33 33 0 0 1-25-33l0-42c-20-12-34-33-34-58l0-500c0-36 30-66 67-66l342 0a67 67 0 0 1 58-34 67 67 0 0 1 58 34l342 0c37 0 67 30 67 66l0 500c0 25-14 46-34 58l0 42a33 33 0 0 1-25 33c0 0-34 8-76 17-43 8-93 17-132 17-39 0-89-9-131-17-38-8-63-14-69-15-6 1-30 7-68 15-43 8-93 17-132 17z m0-67c28 0 78-7 119-16 26-5 35-7 48-10l0-532c-12 3-16 4-35 8-43 8-93 17-132 17-39 0-89-9-131-17-20-4-22-5-36-8l0 532c13 3 22 5 49 10 40 9 90 16 118 16z m400 0c28 0 78-7 119-16 26-5 35-7 48-10l0-532c-14 3-16 4-35 8-43 8-93 17-132 17-39 0-89-9-131-17-20-4-24-5-36-8l0 532c13 3 22 5 49 10 40 9 90 16 118 16z m0-100a33 33 0 0 1-33-33 33 33 0 0 1 33-33 33 33 0 0 1 33 33 33 33 0 0 1-33 33z m-33-100a33 33 0 1 1 0-66l0-100a33 33 0 1 1 0-67l27 0a33 33 0 0 1 11 0l28 0a33 33 0 1 1 0 67l0 133a33 33 0 0 1-33 33l-33 0z" horiz-adv-x="1000" />

<glyph glyph-name="wallet" unicode="&#xe894;" d="M250 725c-68 0-125-56-125-125l0-542c0-46 37-83 83-83l584 0c46 0 83 37 83 83l0 417c0 46-37 83-83 83l-459 0-83 0c-23 0-42 19-42 42 0 24 19 42 42 42l542 0a42 42 0 1 1 0 83l-542 0z m500-417c23 0 42-18 42-41 0-23-19-42-42-42-23 0-42 19-42 42 0 23 19 41 42 41z" horiz-adv-x="1000" />

<glyph glyph-name="water-transportation" unicode="&#xe895;" d="M500 817a33 33 0 0 1-33-34l0-66-100 0c-37 0-67-31-67-67l0-33-33 0c-37 0-67-31-67-67l0-114-74-20 0 0a33 33 0 0 1-26-33 33 33 0 0 1 6-18l94-148 0-129c11-3 23-5 33-5 35 0 76 17 89 23 28 14 61 14 89 0 13-6 55-23 89-23 34 0 76 17 89 23 28 14 61 14 89 0 13-6 54-23 89-23 10 0 22 2 33 5l0 129 94 148a33 33 0 0 1 6 18 33 33 0 0 1-26 33l-74 20 0 114c0 36-30 67-67 67l-33 0 0 33c0 36-30 67-67 67l-100 0 0 66a33 33 0 0 1-33 34z m-133-167l127 0a33 33 0 0 1 11 0l128 0 0-100 100 0 0-95-211 58 0 0a67 67 0 0 1-22 4 67 67 0 0 1-22-4l0 0-211-58 0 95 100 0 0 100z m-100-267c18 0 33-15 33-33 0-18-15-33-33-33-19 0-34 15-34 33 0 18 15 33 34 33z m466 0c19 0 34-15 34-33 0-18-15-33-34-33-18 0-33 15-33 33 0 18 15 33 33 33z m-634-333a33 33 0 0 1-14-63c0 0 71-37 148-37 65 0 116 22 134 31 18-9 68-31 133-31 65 0 115 22 133 31 18-9 69-31 134-31 77 0 148 37 148 37a33 33 0 1 1-30 60c0 0-63-30-118-30-56 0-119 30-119 30a33 33 0 0 1-30 0c0 0-62-30-118-30-56 0-118 30-118 30a33 33 0 0 1-30 0c0 0-63-30-119-30-55 0-118 30-118 30a33 33 0 0 1-16 3z" horiz-adv-x="1000" />

<glyph glyph-name="weight" unicode="&#xe896;" d="M500 808c-92 0-167-75-167-166l-83 0c-21 0-38-16-41-36l-84-583c-1-12 2-25 10-34 8-9 20-14 32-14l666 0c12 0 24 5 32 14 8 9 11 22 10 34l-84 583c-3 20-20 36-41 36l-83 0c0 91-75 166-167 166z m0-83c47 0 83-37 83-83l-166 0c0 46 37 83 83 83z" horiz-adv-x="1000" />

<glyph glyph-name="wildlife" unicode="&#xe897;" d="M800 750c-110 0-200-1-233-133 68-11 113-7 148 12-5-30-5-64 0-101 61 48 86 91 92 146 0-46-2-97-7-124l100 0c-7 44-9 155 0 200l-100 0z m-286-81c-16 0-32-2-46-6l-118-34c-20-5-40-15-60-28-11 15-25 28-40 37-51 29-103 2-132-50-28-51-26-111 27-140 8-4 10-5 17-9-28-69-39-147-18-220 19-70 88-138 188-186 68-32 138-50 198-50 23 0 44 3 62 8 50 14 102 52 148 102 1 38 0 80-4 103-45-68-108-125-162-140-51-15-135 0-213 37-80 39-139 94-153 144-37 133 60 300 160 328l118 33c5 2 11 3 16 4-2 10-3 20 0 31 3 13 7 25 12 36z m286-186c10-44 8-155 0-200l100 0c-7 45-9 156 0 200l-100 0z m-213-15c-7 0-13-1-19-3-48-13-66-68-40-123 26-54 85-87 133-74 48 14 66 69 40 123-22 47-70 79-114 77z m-202-57c-6 0-12-1-18-2-48-14-82-73-75-133 6-60 50-97 98-84 48 14 82 73 75 133-5 52-40 87-80 86z m200-8c12-1 22-9 26-22 4-16-5-33-22-38-16-4-33 5-37 22-5 16 4 33 21 38 4 1 8 1 12 0z m-177-49c12-2 22-10 25-22 5-17-5-34-21-38-16-5-33 5-38 21-4 16 5 33 22 38 4 1 8 1 12 1z m392-137c10-45 8-156 0-200l100 0c-7 44-9 155 0 200l-100 0z m-211-4c-10 2-30-10-54-17-32-9-63-3-57-23 5-20 59-48 76-43 22 6 48 56 42 76-1 4-4 6-7 7z" horiz-adv-x="1000" />

<glyph glyph-name="yellowstone" unicode="&#xe898;" d="M467 783c-50 0-87-31-110-71-8 2-15 5-24 5-73 0-133-60-133-134 0-65 49-118 112-129 11-21 30-37 55-37a33 33 0 0 1 19 5c7-59 14-131 14-205a33 33 0 1 1 67 0c0 171-34 340-34 340a33 33 0 0 1-33 27 33 33 0 0 1-33-40c0 0 5-27 11-62a33 33 0 0 1-11 1 33 33 0 0 1-34 34c-37 0-66 29-66 66 0 38 29 67 66 67 9 0 17-2 25-5a33 33 0 0 1 45 22c7 29 33 50 64 50 21 0 39-10 51-25a33 33 0 0 1 37-11c5 2 8 2 12 2 13 0 24-7 29-18a33 33 0 0 1 21-18c29-7 50-33 50-64 0-31-21-56-50-64a33 33 0 0 1-8-3 33 33 0 0 1-8 1 33 33 0 0 1-33-26c0 0-35-135-35-274a33 33 0 1 1 67 0c0 97 19 195 28 237a33 33 0 0 1 7 1c56 16 98 67 98 128 0 56-36 99-84 119-18 28-47 48-82 48-5 0-10-2-14-2-24 20-52 35-86 35z m66-166a33 33 0 0 1-33-34 33 33 0 1 1 0-66c36 0 67 30 67 66a33 33 0 0 1-34 34z m202-333a33 33 0 0 1-16-4c0 0-50-23-82-81a33 33 0 1 1 59-31c21 38 51 52 51 52a33 33 0 0 1-12 64z m-435-1a33 33 0 0 1 0-66 33 33 0 0 1 0 66z m133-166c-8 0-17-4-23-10l-28-28c-19-18-44-29-70-29l-179 0c-18 0-33-15-33-33 0-19 15-34 33-34l734 0c18 0 33 15 33 34 0 18-15 33-33 33l-178 0c-27 0-52 11-71 29l-28 28c-6 6-14 10-23 10l-134 0z" horiz-adv-x="1000" />

<glyph glyph-name="baggage" unicode="&#xe899;" d="M871 690h-68v-680h68c38 0 69 31 69 69v542c0 38-31 69-69 69z m-814-69v-542c0-38 31-69 69-69h67v680h-67c-39 0-69-31-69-69z m543 101c0 19-15 35-35 35h-134c-19 0-35-16-35-35v-32h-136v-680h477v680h-137v32z" horiz-adv-x="1000" />

<glyph glyph-name="no-baggage" unicode="&#xe900;" d="M57 840l-47-47 933-933 47 47-111 111c31 6 54 33 54 65l0 534c0 37-29 66-66 66l-67 0 0-586-67 67 0 519-133 0 0 34c0 18-15 33-33 33l-134 0c-18 0-33-15-33-33l0-34-133 0 0-52-210 209z m14-202c-3-6-4-14-4-21l0-534c0-36 30-66 66-66l67 0 0 492-129 129z m196-196l0-425 425 0-425 425z" horiz-adv-x="1000" />

<glyph glyph-name="star" unicode="&#xe901;" d="M2 460q11 37 101 37h225l69 207v1q19 56 44 75t49 0 43-75l1-1 68-207h226q58 0 85-17t14-47-59-63l-5-4-176-126 67-207 2-2q27-85-4-109t-105 29l-3 2-2 1-177 127-179-128-2-2q-73-52-105-29t-4 109l1 1v2l68 206-177 126-2 2-2 2q-73 52-61 90z" horiz-adv-x="931.2" />

<glyph glyph-name="star-empty" unicode="&#xe902;" d="M3 436q-12 31 16 50t91 18h242l74 222v1q14 45 33 68t40 23q20 0 39-23t33-68l1-1 73-222h242q63 0 91-18t16-50-64-68l-5-4-190-135 74-221 1-3q19-60 11-91t-40-32q-37 0-88 38l-2 2-3 1-189 136-192-137-3-2q-52-39-88-39-31 0-40 32t11 92l1 3 74 221-190 135-2 3-3 1q-51 37-64 68z m165-26l203-145-21-65-57-173 206 147 205-147-57 173-21 65 203 145h-251l-21 65-58 175-80-240h-251z" horiz-adv-x="997.6" />

<glyph glyph-name="heart" unicode="&#xe903;" d="M0 530q0 103 73 176t177 73q70 0 128-34t91-93q32 58 90 93t128 34q103 0 177-73t73-176q0-95-63-166l-343-403q-25-31-62-31t-63 31l-343 403q-63 71-63 166z" horiz-adv-x="937.5" />

<glyph glyph-name="mail" unicode="&#xe904;" d="M0 28v644q0 8 2 18l460-460q39-39 95-39 55 0 94 39l460 460q2-9 2-18v-644q0-37-26-62t-62-26h-937q-36 0-62 26t-26 62z m63 728q13 4 25 4h937q12 0 25-4l-463-463q-13-12-31-12t-30 12z" horiz-adv-x="1113.3" />

<glyph glyph-name="eye" unicode="&#xe905;" d="M0 350q0 30 15 67t44 77 70 78 92 68 115 49 133 18 132-18 115-49 92-68 70-78 44-77 15-67q0-30-15-67t-44-77-70-78-92-68-115-48-132-19-133 19-115 48-92 68-70 78-44 77-15 67z m234 0q0-64 32-117t85-85 118-32 117 32 85 85 32 117-32 117-85 86-117 31-118-31-85-86-32-117z m136 0q0-41 29-70t70-28 69 28 29 70q0 41-29 70t-69 29-70-29-29-70z" horiz-adv-x="937.5" />
</font>
</defs>
</svg>
